<?xml version="1.0" encoding="UTF-8"?>
<!-- Uploaded to: SVG Find, www.svgrepo.com, Generator: SVG Find Mixer Tools -->
<svg fill="#212d45" width="800px" height="800px" version="1.1" viewBox="144 144 512 512" xmlns="http://www.w3.org/2000/svg">
 <g>
  <path d="m483.59 309.8c-0.023438 2.0078 0.75781 3.9414 2.1719 5.3711 1.4102 1.4297 3.3359 2.2305 5.3438 2.2305 2.0078 0 3.9336-0.80078 5.3438-2.2305 1.4141-1.4297 2.1953-3.3633 2.1719-5.3711v-3.4414c4.3984-0.54688 8.4453-2.6797 11.383-6 2.9336-3.3242 4.5586-7.6016 4.5586-12.035v-5.3633c0.011718-4.8242-1.8945-9.457-5.2969-12.879-3.3984-3.4258-8.0195-5.3555-12.848-5.375h-10.629c-1.7461-0.03125-3.1367-1.4727-3.1094-3.2188v-5.3711c-0.027343-1.7461 1.3633-3.1875 3.1094-3.2188h10.629c1.75 0.03125 3.1406 1.4727 3.1133 3.2188-0.023438 2.0078 0.75781 3.9414 2.1719 5.3711 1.4102 1.4297 3.3359 2.2305 5.3438 2.2305 2.0078 0 3.9336-0.80078 5.3438-2.2305 1.4141-1.4297 2.1953-3.3633 2.1719-5.3711 0-4.4297-1.6211-8.7109-4.5586-12.031-2.9375-3.3203-6.9844-5.4531-11.383-6v-3.4453c-0.046876-4.1172-3.3984-7.4297-7.5156-7.4297-4.1172 0-7.4688 3.3125-7.5156 7.4297v3.4453c-4.3984 0.54688-8.4492 2.6797-11.383 6-2.9375 3.3203-4.5586 7.6016-4.5586 12.031v5.375c-0.011719 4.8242 1.8945 9.457 5.2969 12.879 3.3984 3.4219 8.0195 5.3516 12.844 5.3711h10.629c1.75 0.03125 3.1406 1.4727 3.1133 3.2227v5.3633c0.03125 1.75-1.3633 3.1953-3.1133 3.2266h-10.629c-1.7461-0.03125-3.1406-1.4766-3.1094-3.2266-0.046875-4.1172-3.3984-7.4297-7.5156-7.4297-4.1211 0-7.4727 3.3125-7.5156 7.4297 0 4.4336 1.6211 8.7148 4.5586 12.035 2.9336 3.3203 6.9844 5.4531 11.383 6z"/>
  <path d="m569.75 291.55h-10.629c-1.7461-0.03125-3.1406-1.4766-3.1094-3.2266-0.046875-4.1172-3.3984-7.4297-7.5156-7.4297-4.1211 0-7.4688 3.3125-7.5156 7.4297 0 4.4336 1.6211 8.7148 4.5586 12.035 2.9336 3.3203 6.9844 5.4531 11.383 6v3.4414c-0.023437 2.0078 0.75781 3.9414 2.1719 5.3711 1.4102 1.4297 3.3359 2.2305 5.3438 2.2305 2.0078 0 3.9336-0.80078 5.3438-2.2305 1.4141-1.4297 2.1953-3.3633 2.1719-5.3711v-3.4414c4.3984-0.54688 8.4453-2.6797 11.383-6 2.9375-3.3242 4.5586-7.6016 4.5586-12.035v-5.3633c0.011718-4.8242-1.8945-9.457-5.2969-12.879-3.3984-3.4258-8.0195-5.3555-12.848-5.375h-10.629c-1.7461-0.03125-3.1367-1.4727-3.1094-3.2188v-5.3711c-0.027344-1.7461 1.3633-3.1875 3.1094-3.2188h10.629c1.75 0.03125 3.1406 1.4727 3.1133 3.2188-0.023438 2.0078 0.75781 3.9414 2.1719 5.3711 1.4102 1.4297 3.3359 2.2305 5.3438 2.2305 2.0078 0 3.9336-0.80078 5.3438-2.2305 1.4141-1.4297 2.1953-3.3633 2.1719-5.3711 0-4.4297-1.6211-8.7109-4.5586-12.031-2.9375-3.3203-6.9844-5.4531-11.383-6v-3.4453c-0.046875-4.1172-3.3984-7.4297-7.5156-7.4297-4.1172 0-7.4688 3.3125-7.5156 7.4297v3.4453c-4.3984 0.54688-8.4492 2.6797-11.383 6-2.9375 3.3203-4.5586 7.6016-4.5586 12.031v5.375c-0.011719 4.8242 1.8945 9.457 5.2969 12.879s8.0195 5.3516 12.844 5.3711h10.629c1.75 0.03125 3.1406 1.4727 3.1133 3.2227v5.3633c0.027343 1.75-1.3633 3.1914-3.1133 3.2227z"/>
  <path d="m542.8 452.61c0 9.9648 3.957 19.523 11.004 26.57 7.0508 7.0508 16.609 11.008 26.574 11.008 9.9688 0 19.527-3.957 26.574-11.008 7.0469-7.0469 11.008-16.605 11.008-26.57 0-9.9688-3.9609-19.527-11.008-26.574s-16.605-11.008-26.574-11.008c-9.9609 0.011718-19.516 3.9766-26.559 11.02-7.0469 7.0469-11.008 16.598-11.02 26.562zm60.129 0c0 5.9805-2.3789 11.715-6.6055 15.941-4.2305 4.2305-9.9648 6.6055-15.945 6.6055-5.9805 0-11.715-2.375-15.941-6.6055-4.2305-4.2266-6.6055-9.9609-6.6055-15.941s2.375-11.719 6.6055-15.945c4.2266-4.2305 9.9609-6.6055 15.941-6.6055 5.9805 0.007812 11.711 2.3867 15.938 6.6133 4.2266 4.2266 6.6055 9.957 6.6133 15.938z"/>
  <path d="m377.45 452.61c0 9.9648 3.9609 19.523 11.008 26.57 7.0469 7.0508 16.605 11.008 26.574 11.008 9.9648 0 19.523-3.957 26.574-11.008 7.0469-7.0469 11.004-16.605 11.004-26.57 0-9.9688-3.957-19.527-11.004-26.574-7.0508-7.0469-16.609-11.008-26.574-11.008-9.9648 0.011718-19.516 3.9766-26.562 11.02-7.043 7.0469-11.008 16.598-11.02 26.562zm60.129 0c0 5.9805-2.375 11.715-6.6055 15.941-4.2266 4.2305-9.9609 6.6055-15.941 6.6055s-11.715-2.375-15.945-6.6055c-4.2266-4.2266-6.6055-9.9609-6.6055-15.941s2.3789-11.719 6.6055-15.945c4.2305-4.2305 9.9648-6.6055 15.945-6.6055 5.9766 0.007812 11.707 2.3867 15.938 6.6133 4.2266 4.2266 6.6016 9.957 6.6094 15.938z"/>
  <path d="m182.03 505.22c0 1.9922 0.79297 3.9062 2.2031 5.3164 1.4102 1.4102 3.3203 2.1992 5.3164 2.1992h120.25c1.9961 0 3.9062-0.78906 5.3164-2.1992 1.4102-1.4102 2.2031-3.3242 2.2031-5.3164v-36.391c-0.015625-12.273-4.8984-24.035-13.574-32.715-8.6758-8.6758-20.441-13.555-32.715-13.57h-42.719c-12.27 0.015625-24.035 4.8945-32.711 13.574-8.6758 8.6758-13.559 20.441-13.574 32.711zm15.031-36.391h0.003906c0.007813-8.2852 3.3047-16.23 9.1602-22.09 5.8594-5.8594 13.805-9.1523 22.09-9.1641h42.719c8.2852 0.007813 16.23 3.3047 22.09 9.1641 5.8594 5.8594 9.1523 13.805 9.1641 22.09v28.871h-105.22z"/>
  <path d="m212.1 377.45c0 9.9688 3.9609 19.527 11.008 26.574 7.0469 7.0469 16.605 11.008 26.574 11.008 9.9648 0 19.523-3.9609 26.57-11.008 7.0508-7.0469 11.008-16.605 11.008-26.574 0-9.9648-3.9609-19.527-11.008-26.574s-16.605-11.004-26.574-11.004c-9.9609 0.011718-19.512 3.9727-26.559 11.02-7.043 7.043-11.008 16.598-11.02 26.559zm37.578-22.547c5.9805 0 11.719 2.375 15.945 6.6055 4.2305 4.2266 6.6055 9.9609 6.6055 15.941s-2.375 11.719-6.6055 15.945c-4.2266 4.2305-9.9609 6.6055-15.941 6.6055-5.9805 0-11.719-2.375-15.945-6.6055-4.2305-4.2305-6.6055-9.9648-6.6055-15.945 0.007813-5.9766 2.3867-11.707 6.6133-15.934 4.2266-4.2266 9.957-6.6055 15.934-6.6133z"/>
  <path d="m601.74 497.71h-42.719c-9.418 0.015625-18.605 2.9023-26.34 8.2734-7.7344 5.3711-13.648 12.973-16.953 21.789h-36.047c-3.3047-8.8164-9.2188-16.418-16.953-21.789-7.7344-5.3711-16.922-8.2578-26.34-8.2734h-42.719c-9.418 0.015625-18.605 2.9023-26.34 8.2734-7.7344 5.3711-13.648 12.973-16.953 21.789h-190.89c-1.9922 0-3.9062 0.79297-5.3125 2.2031-1.4102 1.4102-2.2031 3.3203-2.2031 5.3125v30.066c0 1.9922 0.79297 3.9062 2.2031 5.3164 1.4062 1.4102 3.3203 2.1992 5.3125 2.1992h187.91v22.551c-0.003906 1.9961 0.78906 3.9062 2.1992 5.3164s3.3203 2.1992 5.3164 2.1992h120.25c1.9922 0 3.9062-0.78906 5.3125-2.1992 1.4102-1.4102 2.2031-3.3242 2.2031-5.3164v-22.551h30.066l-0.003907 22.551c0 1.9922 0.79297 3.9062 2.2031 5.3164 1.4062 1.4102 3.3203 2.1992 5.3125 2.1992h120.26c1.9922 0 3.9062-0.78906 5.3164-2.1992s2.1992-3.3203 2.1992-5.3164v-51.426c-0.015625-12.27-4.8945-24.035-13.57-32.715-8.6797-8.6758-20.445-13.555-32.715-13.57zm-254.35 46.285v13.844h-180.39v-15.031h180.39zm120.26 21.359v22.547h-105.23v-43.906c0.007812-8.2852 3.3047-16.23 9.1641-22.09s13.805-9.1523 22.09-9.1641h42.719c8.2852 0.011719 16.23 3.3047 22.09 9.1641s9.1523 13.805 9.1641 22.09zm45.098-21.359v13.844h-30.07v-15.031h30.066zm120.26 43.906h-105.23v-43.906c0.011719-8.2852 3.3047-16.23 9.1641-22.09s13.805-9.1523 22.09-9.1641h42.719c8.2852 0.011719 16.23 3.3047 22.09 9.1641s9.1562 13.805 9.1641 22.09z"/>
  <path d="m234.64 204.58v90.191c0 1.9961 0.79297 3.9062 2.2031 5.3164 1.4102 1.4102 3.3203 2.2031 5.3125 2.2031h61.566l-15.789 34.449h0.003906c-1.4297 3.1211-0.5625 6.8203 2.1133 8.9766 2.6758 2.1562 6.4727 2.2227 9.2227 0.16406l58.125-43.59h42.598c1.9922 0 3.9023-0.79297 5.3125-2.2031 1.4102-1.4102 2.2031-3.3203 2.2031-5.3164v-90.191c0-1.9922-0.79297-3.9023-2.2031-5.3125s-3.3203-2.1992-5.3125-2.1992h-157.84c-1.9922 0-3.9023 0.78906-5.3125 2.1992s-2.2031 3.3203-2.2031 5.3125zm15.031 7.5156h142.8v75.16h-37.578c-1.625 0-3.207 0.52734-4.5078 1.5039l-36.465 27.34 8.3438-18.199 0.003906 0.003906c1.0664-2.3281 0.875-5.0391-0.50781-7.1914-1.3828-2.1562-3.7656-3.457-6.3281-3.457h-65.766z"/>
  <path d="m430.06 204.58v135.29c0 1.9922 0.79297 3.9062 2.1992 5.3125 1.4102 1.4102 3.3242 2.2031 5.3164 2.2031h28.91l-6.2891 44.031c-0.47266 3.3086 1.2969 6.5312 4.3398 7.9102 3.043 1.3789 6.6328 0.58203 8.8086-1.9531l42.848-49.984h41.641v37.582-0.003906c0 3.3125 2.168 6.2344 5.3398 7.1914 3.168 0.96094 6.5938-0.26953 8.4297-3.0234l27.832-41.746h18.527c1.9922 0 3.9062-0.79297 5.3125-2.2031 1.4102-1.4102 2.2031-3.3203 2.2031-5.3164v-135.29c0-1.9922-0.79297-3.9062-2.2031-5.3164-1.4062-1.4102-3.3203-2.1992-5.3125-2.1992h-180.39c-1.9922 0-3.9062 0.78906-5.3164 2.1992-1.4062 1.4102-2.1992 3.3242-2.1992 5.3164zm15.031 7.5156h165.36v120.26h-15.031c-2.5117 0-4.8594 1.2539-6.2539 3.3438l-16.293 24.441v-20.27c0-1.9961-0.79297-3.9062-2.2031-5.3164-1.4062-1.4102-3.3203-2.1992-5.3125-2.1992h-52.609c-2.1953-0.003907-4.2773 0.95703-5.7031 2.6211l-28.301 33.016 3.8672-27.059c0.30859-2.1562-0.33594-4.3438-1.7656-5.9883-1.4258-1.6484-3.5-2.5938-5.6797-2.5898h-30.07z"/>
  <path d="m272.23 242.16h97.707c4.1172-0.046875 7.4336-3.3945 7.4336-7.5156 0-4.1172-3.3164-7.4688-7.4336-7.5156h-97.707c-4.1172 0.046875-7.4336 3.3984-7.4336 7.5156 0 4.1211 3.3164 7.4688 7.4336 7.5156z"/>
  <path d="m377.45 264.71c0-1.9961-0.78906-3.9062-2.1992-5.3164-1.4102-1.4102-3.3203-2.2031-5.3164-2.1992h-97.707c-4.1172 0.046876-7.4336 3.3945-7.4336 7.5156 0 4.1172 3.3164 7.4688 7.4336 7.5156h97.707c1.9961 0 3.9062-0.79297 5.3164-2.2031 1.4102-1.4062 2.1992-3.3203 2.1992-5.3125z"/>
 </g>
</svg>