<?xml version="1.0" encoding="UTF-8"?>
<svg xmlns="http://www.w3.org/2000/svg" xmlns:xlink="http://www.w3.org/1999/xlink" width="226.74pt" height="52.41pt" viewBox="0 0 226.74 52.41" version="1.1">
<defs>
<clipPath id="clip1">
  <path d="M 0 0 L 114 0 L 114 52.410156 L 0 52.410156 Z M 0 0 "/>
</clipPath>
<clipPath id="clip2">
  <path d="M 101 0 L 160 0 L 160 52.410156 L 101 52.410156 Z M 101 0 "/>
</clipPath>
<clipPath id="clip3">
  <path d="M 198 24 L 226.738281 24 L 226.738281 52 L 198 52 Z M 198 24 "/>
</clipPath>
</defs>
<g id="surface1">
<g clip-path="url(#clip1)" clip-rule="nonzero">
<path style=" stroke:none;fill-rule:evenodd;fill:rgb(28.199768%,27.799988%,28.599548%);fill-opacity:1;" d="M 68.691406 22.125 C 70.128906 21.335938 71.320313 20.203125 72.597656 19.199219 C 80.460938 13.035156 88.300781 6.835938 96.148438 0.652344 C 96.550781 0.335938 96.90625 0.0078125 97.503906 0.0117188 C 102.941406 0.0507813 108.378906 0.0546875 113.816406 0.0703125 C 112.367188 1.175781 110.914063 2.28125 109.464844 3.386719 C 106.75 5.457031 103.902344 7.351563 101.289063 9.554688 C 96.492188 13.082031 91.710938 16.625 86.886719 20.117188 C 86.152344 20.652344 86.464844 21.097656 86.695313 21.640625 C 90.964844 31.570313 95.234375 41.5 99.503906 51.429688 C 99.613281 51.683594 99.71875 51.941406 99.839844 52.226563 C 99.484375 52.476563 99.125 52.378906 98.792969 52.382813 C 94.550781 52.386719 90.3125 52.367188 86.074219 52.402344 C 85.242188 52.410156 84.828125 52.203125 84.511719 51.367188 C 81.742188 44.09375 78.902344 36.851563 76.128906 29.582031 C 75.792969 28.707031 75.605469 28.554688 74.8125 29.195313 C 71.765625 31.65625 68.664063 34.050781 65.5625 36.445313 C 64.992188 36.886719 64.695313 37.386719 64.535156 38.105469 C 63.5625 42.550781 62.511719 46.976563 61.539063 51.421875 C 61.382813 52.128906 61.171875 52.40625 60.394531 52.40625 C 40.554688 52.382813 20.714844 52.382813 0.875 52.402344 C 0.117188 52.402344 -0.0976563 52.214844 0.0390625 51.460938 C 0.546875 48.671875 1.023438 45.878906 1.484375 43.078125 C 1.582031 42.484375 2.03125 42.210938 2.398438 41.871094 C 12.980469 32.007813 23.574219 22.152344 34.160156 12.292969 C 35.09375 11.421875 36.015625 10.542969 36.992188 9.617188 C 36.566406 9.277344 36.117188 9.4375 35.71875 9.433594 C 27.882813 9.421875 20.042969 9.40625 12.203125 9.449219 C 11.167969 9.457031 10.90625 9.230469 11.125 8.199219 C 11.644531 5.78125 12.085938 3.347656 12.5 0.90625 C 12.617188 0.21875 12.882813 0.0117188 13.585938 0.0117188 C 27.1875 0.03125 40.785156 0.0351563 54.386719 0.0117188 C 55.171875 0.0078125 55.339844 0.207031 55.167969 0.957031 C 54.644531 3.253906 54.160156 5.558594 53.695313 7.867188 C 53.5625 8.527344 53.261719 9 52.757813 9.460938 C 40.847656 20.359375 28.953125 31.277344 17.058594 42.191406 C 16.828125 42.402344 16.621094 42.640625 16.394531 42.867188 C 16.617188 43.253906 16.972656 43.089844 17.253906 43.089844 C 28.414063 43.078125 39.570313 43.042969 50.730469 43.042969 C 51.535156 43.042969 51.777344 42.78125 51.953125 42.007813 C 55.027344 28.382813 58.148438 14.765625 61.234375 1.144531 C 61.417969 0.332031 61.679688 -0.0195313 62.609375 0 C 65.96875 0.0703125 69.332031 0.0664063 72.6875 0.00390625 C 73.746094 -0.015625 73.820313 0.265625 73.582031 1.210938 C 71.953125 7.753906 70.390625 14.316406 68.808594 20.871094 C 68.71875 21.257813 68.679688 21.65625 68.617188 22.046875 C 68.574219 22.105469 68.523438 22.160156 68.492188 22.21875 C 68.484375 22.230469 68.539063 22.273438 68.566406 22.300781 C 68.609375 22.242188 68.648438 22.183594 68.691406 22.125 "/>
</g>
<g clip-path="url(#clip2)" clip-rule="nonzero">
<path style=" stroke:none;fill-rule:evenodd;fill:rgb(47.099304%,74.099731%,26.298523%);fill-opacity:1;" d="M 101.289063 9.554688 C 103.902344 7.351563 106.75 5.457031 109.464844 3.386719 C 110.914063 2.28125 112.367188 1.175781 113.816406 0.0703125 C 129.046875 0.0703125 144.277344 0.0703125 159.679688 0.0703125 C 158.699219 3.160156 157.746094 6.148438 156.8125 9.136719 C 156.59375 9.832031 156.035156 9.578125 155.609375 9.578125 C 150.691406 9.597656 145.773438 9.613281 140.855469 9.570313 C 139.980469 9.5625 139.636719 9.832031 139.386719 10.671875 C 135.359375 24.207031 131.285156 37.726563 127.265625 51.261719 C 127 52.15625 126.628906 52.425781 125.707031 52.410156 C 122.632813 52.34375 119.550781 52.351563 116.472656 52.402344 C 115.523438 52.417969 115.335938 52.214844 115.605469 51.269531 C 119.371094 38.28125 123.097656 25.285156 126.839844 12.289063 C 127.632813 9.523438 127.644531 9.527344 124.789063 9.527344 C 116.957031 9.535156 109.121094 9.542969 101.289063 9.554688 "/>
</g>
<g clip-path="url(#clip3)" clip-rule="nonzero">
<path style=" stroke:none;fill-rule:evenodd;fill:rgb(47.099304%,74.099731%,26.298523%);fill-opacity:1;" d="M 219.1875 31.710938 C 213.3125 31.710938 207.535156 31.710938 201.738281 31.710938 C 202.46875 27.289063 204.058594 25.535156 208.335938 25.195313 C 213.191406 24.8125 218.082031 24.8125 222.945313 25.226563 C 226.023438 25.488281 227.203125 26.984375 226.582031 29.992188 C 225.414063 35.660156 224.117188 41.300781 222.714844 46.914063 C 222.011719 49.738281 219.851563 51.242188 216.449219 51.339844 C 211.855469 51.46875 207.257813 51.398438 202.65625 51.351563 C 201.878906 51.34375 201.074219 51.105469 200.328125 50.847656 C 198.964844 50.378906 198.332031 49.382813 198.265625 47.933594 C 198.203125 46.546875 198.628906 45.25 198.917969 43.929688 C 199.511719 41.238281 200.140625 38.558594 200.710938 35.863281 C 200.863281 35.125 201.144531 34.804688 201.964844 34.84375 C 203.601563 34.917969 205.246094 34.921875 206.882813 34.84375 C 207.890625 34.792969 208.011719 35.175781 207.808594 36.027344 C 207.203125 38.550781 206.675781 41.089844 206.050781 43.609375 C 205.828125 44.5 205.976563 44.804688 206.960938 44.785156 C 209.757813 44.730469 212.558594 44.757813 215.355469 44.773438 C 215.886719 44.777344 216.253906 44.722656 216.390625 44.089844 C 217.296875 40.003906 218.230469 35.921875 219.1875 31.710938 "/>
</g>
<path style=" stroke:none;fill-rule:evenodd;fill:rgb(47.099304%,74.099731%,26.298523%);fill-opacity:1;" d="M 155.480469 51.425781 C 151.761719 51.425781 148.042969 51.402344 144.324219 51.441406 C 143.445313 51.453125 143.273438 51.269531 143.484375 50.378906 C 144.632813 45.523438 145.726563 40.65625 146.78125 35.78125 C 146.945313 35.03125 147.246094 34.84375 147.96875 34.847656 C 153.128906 34.878906 158.285156 34.890625 163.445313 34.839844 C 164.464844 34.832031 164.570313 35.195313 164.359375 36.03125 C 163.96875 37.578125 163.570313 39.128906 163.289063 40.699219 C 163.15625 41.433594 162.828125 41.566406 162.171875 41.558594 C 159.332031 41.53125 156.492188 41.585938 153.652344 41.527344 C 152.800781 41.507813 152.496094 41.761719 152.324219 42.597656 C 151.871094 44.777344 151.824219 44.765625 154.097656 44.765625 C 158.777344 44.765625 163.453125 44.789063 168.132813 44.75 C 169.109375 44.738281 169.398438 44.949219 169.109375 45.957031 C 168.683594 47.449219 168.34375 48.976563 168.082031 50.507813 C 167.949219 51.300781 167.582031 51.441406 166.878906 51.4375 C 163.078125 51.410156 159.28125 51.425781 155.480469 51.425781 "/>
<path style=" stroke:none;fill-rule:evenodd;fill:rgb(47.099304%,74.099731%,26.298523%);fill-opacity:1;" d="M 197.070313 41.667969 C 196.636719 43.425781 196.25 45.214844 195.742188 46.972656 C 194.855469 50.050781 192.441406 51.230469 189.554688 51.328125 C 184.925781 51.476563 180.289063 51.382813 175.65625 51.351563 C 174.992188 51.347656 174.3125 51.15625 173.671875 50.953125 C 171.921875 50.398438 171.03125 49.21875 171.28125 47.4375 C 171.851563 43.367188 173.035156 39.417969 173.851563 35.394531 C 173.921875 35.035156 174.132813 34.859375 174.519531 34.863281 C 176.476563 34.871094 178.4375 34.878906 180.394531 34.859375 C 181.148438 34.851563 180.972656 35.269531 180.867188 35.722656 C 180.246094 38.445313 179.667969 41.175781 179.015625 43.886719 C 178.839844 44.617188 179.011719 44.785156 179.71875 44.777344 C 182.632813 44.75 185.550781 44.75 188.464844 44.777344 C 189.128906 44.785156 189.316406 44.511719 189.460938 43.902344 C 190.019531 41.503906 190.046875 41.507813 192.566406 41.511719 C 193.964844 41.511719 195.363281 41.523438 196.761719 41.535156 C 196.832031 41.535156 196.90625 41.59375 197.070313 41.667969 "/>
<path style=" stroke:none;fill-rule:evenodd;fill:rgb(47.499084%,74.099731%,26.298523%);fill-opacity:1;" d="M 183.429688 31.707031 C 180.832031 31.707031 178.234375 31.6875 175.640625 31.722656 C 174.894531 31.730469 174.683594 31.609375 174.890625 30.796875 C 175.839844 27.050781 177.359375 25.503906 181.207031 25.210938 C 186.140625 24.832031 191.101563 24.816406 196.035156 25.234375 C 199.050781 25.492188 200.167969 27.101563 199.652344 30.066406 C 199.40625 31.476563 199.027344 32.867188 198.730469 34.269531 C 198.636719 34.71875 198.460938 34.976563 197.945313 34.972656 C 196.03125 34.957031 194.113281 34.957031 192.195313 34.972656 C 191.652344 34.976563 191.5 34.785156 191.617188 34.253906 C 191.792969 33.441406 192.433594 32.375 191.960938 31.878906 C 191.445313 31.335938 190.289063 31.726563 189.417969 31.714844 C 187.421875 31.691406 185.425781 31.707031 183.429688 31.707031 "/>
<path style=" stroke:none;fill-rule:evenodd;fill:rgb(47.499084%,74.099731%,26.298523%);fill-opacity:1;" d="M 160.085938 31.707031 C 156.328125 31.707031 152.570313 31.6875 148.8125 31.722656 C 147.957031 31.734375 147.6875 31.539063 147.929688 30.652344 C 148.355469 29.074219 148.71875 27.476563 149.03125 25.871094 C 149.15625 25.238281 149.390625 25.011719 150.042969 25.011719 C 157.679688 25.03125 165.3125 25.03125 172.949219 25.011719 C 173.664063 25.011719 173.828125 25.171875 173.636719 25.898438 C 173.214844 27.519531 172.871094 29.160156 172.554688 30.804688 C 172.414063 31.523438 172.089844 31.734375 171.359375 31.726563 C 167.601563 31.6875 163.84375 31.707031 160.085938 31.707031 "/>
<path style=" stroke:none;fill-rule:evenodd;fill:rgb(100%,100%,100%);fill-opacity:1;" d="M 68.691406 22.125 C 68.648438 22.183594 68.609375 22.242188 68.566406 22.300781 C 68.539063 22.273438 68.484375 22.230469 68.492188 22.21875 C 68.523438 22.160156 68.574219 22.105469 68.617188 22.046875 C 68.617188 22.046875 68.691406 22.125 68.691406 22.125 "/>
</g>
</svg>
