<?xml version="1.0" encoding="UTF-8"?>
<svg xmlns="http://www.w3.org/2000/svg" xmlns:xlink="http://www.w3.org/1999/xlink" width="498.7pt" height="121.5pt" viewBox="0 0 498.7 121.5" version="1.1">
<defs>
<clipPath id="clip1">
  <path d="M 0 0 L 498.699219 0 L 498.699219 121.5 L 0 121.5 Z M 0 0 "/>
</clipPath>
</defs>
<g id="surface1">
<g clip-path="url(#clip1)" clip-rule="nonzero">
<path style=" stroke:none;fill-rule:evenodd;fill:rgb(100%,100%,100%);fill-opacity:1;" d="M 152.984375 71.054688 L 169.359375 71.054688 L 161.671875 101.464844 L 145.257813 101.464844 L 150.085938 82.46875 L 149.585938 82.46875 L 147.203125 91.890625 L 136.089844 91.890625 L 133.65625 101.464844 L 117.246094 101.464844 L 124.972656 71.054688 Z M 205.480469 101.464844 L 184.226563 101.464844 L 179.851563 95.777344 L 178.410156 101.464844 L 162.003906 101.464844 L 169.695313 71.054688 L 187.296875 71.054688 L 188.777344 71.085938 L 190.28125 71.191406 L 190.941406 71.25 L 191.636719 71.320313 L 192.394531 71.4375 L 193.117188 71.578125 L 193.699219 71.710938 L 194.355469 71.855469 L 194.96875 72.035156 L 195.636719 72.230469 L 196.226563 72.46875 L 196.777344 72.6875 L 197.394531 72.980469 L 197.988281 73.300781 L 198.480469 73.625 L 198.960938 73.945313 L 199.503906 74.375 L 200.367188 75.246094 L 200.839844 75.886719 L 201.152344 76.414063 L 201.410156 76.933594 L 201.714844 77.597656 L 202.019531 78.914063 L 202.074219 79.660156 L 202.074219 80.320313 L 202.03125 80.945313 L 201.945313 81.578125 L 201.808594 82.3125 L 201.539063 83.214844 L 201.316406 83.761719 L 201.117188 84.164063 L 200.929688 84.546875 L 200.714844 84.933594 L 200.410156 85.433594 L 199.867188 86.136719 L 199.535156 86.5625 L 198.824219 87.273438 L 198.078125 87.941406 L 197.261719 88.554688 L 196.433594 89.078125 L 195.523438 89.609375 L 194.484375 90.089844 L 194.4375 90.105469 L 198.871094 94.667969 L 204.71875 71.558594 L 204.480469 71.570313 L 201.773438 71.570313 L 200.328125 71.5 L 199.023438 71.402344 L 197.675781 71.234375 L 196.421875 71.042969 L 195.117188 70.835938 L 193.882813 70.527344 L 192.671875 70.226563 L 191.449219 69.828125 L 190.339844 69.433594 L 189.234375 68.988281 L 188.152344 68.496094 L 187.117188 67.964844 L 186.117188 67.375 L 185.15625 66.769531 L 184.191406 66.066406 L 183.324219 65.34375 L 182.519531 64.605469 L 181.691406 63.785156 L 180.945313 62.878906 L 180.289063 62.054688 L 179.652344 61.117188 L 179.054688 60.109375 L 178.546875 59.078125 L 178.089844 58.097656 L 177.683594 56.996094 L 177.328125 55.902344 L 177.03125 54.753906 L 176.8125 53.535156 L 176.671875 52.351563 L 176.566406 51.171875 L 176.53125 49.882813 L 176.570313 48.679688 L 176.671875 47.554688 L 176.820313 46.378906 L 177.070313 45.257813 L 177.324219 44.179688 L 177.710938 43.082031 L 178.105469 42.054688 L 178.59375 41.046875 L 179.089844 40.089844 L 179.703125 39.132813 L 180.34375 38.242188 L 181.035156 37.367188 L 181.773438 36.558594 L 182.546875 35.78125 L 183.378906 35.023438 L 184.308594 34.28125 L 185.226563 33.644531 L 186.15625 33.023438 L 187.144531 32.457031 L 188.199219 31.894531 L 189.300781 31.398438 L 190.386719 30.960938 L 191.515625 30.546875 L 192.734375 30.164063 L 193.910156 29.828125 L 195.214844 29.546875 L 196.40625 29.320313 L 197.710938 29.121094 L 199.054688 28.953125 L 200.433594 28.851563 L 201.78125 28.785156 L 203.171875 28.753906 L 204.78125 28.789063 L 206.296875 28.855469 L 207.789063 29.019531 L 209.230469 29.183594 L 210.652344 29.425781 L 212.007813 29.730469 L 213.308594 30.066406 L 214.59375 30.449219 L 215.820313 30.902344 L 216.964844 31.375 L 218.113281 31.894531 L 219.179688 32.464844 L 220.214844 33.070313 L 221.195313 33.738281 L 222.089844 34.394531 L 222.996094 35.113281 L 223.851563 35.898438 L 224.617188 36.699219 L 225.328125 37.519531 L 226.03125 38.371094 L 226.605469 39.269531 L 227.164063 40.109375 L 227.164063 28.941406 L 272.558594 28.941406 L 272.558594 42.941406 L 259.507813 42.941406 L 259.507813 69.230469 L 239.90625 69.230469 L 239.90625 42.941406 L 228.515625 42.941406 L 228.53125 42.984375 L 228.878906 43.894531 L 229.195313 44.953125 L 229.410156 45.96875 L 229.585938 46.898438 L 229.734375 47.933594 L 229.804688 48.957031 L 229.839844 49.964844 L 229.804688 51.261719 L 229.695313 52.488281 L 229.523438 53.667969 L 229.300781 54.890625 L 228.964844 56.039063 L 228.613281 57.132813 L 228.175781 58.230469 L 227.703125 59.242188 L 227.140625 60.296875 L 226.507813 61.265625 L 225.867188 62.15625 L 225.144531 63.0625 L 224.363281 63.917969 L 223.53125 64.710938 L 222.664063 65.472656 L 221.773438 66.148438 L 220.886719 66.792969 L 219.867188 67.449219 L 218.828125 68.023438 L 217.796875 68.539063 L 216.738281 69.015625 L 215.632813 69.464844 L 214.445313 69.882813 L 213.308594 70.222656 L 212.136719 70.558594 L 210.859375 70.839844 L 209.753906 71.054688 L 233.285156 71.054688 L 230.402344 82.46875 L 229.765625 82.46875 L 227.847656 90.046875 L 228.453125 90.046875 L 225.566406 101.464844 Z M 279.117188 78.992188 L 275.222656 82.613281 L 275.597656 82.8125 L 276.394531 83.3125 L 276.835938 83.644531 L 277.15625 83.929688 L 277.640625 84.351563 L 277.960938 84.773438 L 278.144531 84.992188 L 278.59375 85.589844 L 279.039063 86.597656 L 279.378906 87.601563 L 279.441406 88.261719 L 279.484375 88.71875 L 279.484375 89.292969 L 279.445313 89.765625 L 279.390625 90.382813 L 279.21875 91.0625 L 279.078125 91.566406 L 278.679688 92.757813 L 278.386719 93.347656 L 278.097656 93.964844 L 277.714844 94.558594 L 277.359375 95.109375 L 276.476563 96.230469 L 275.914063 96.792969 L 275.363281 97.308594 L 274.738281 97.808594 L 274.074219 98.273438 L 273.441406 98.699219 L 272.671875 99.144531 L 271.1875 99.851563 L 270.378906 100.183594 L 269.566406 100.476563 L 268.003906 100.953125 L 267.132813 101.171875 L 265.535156 101.503906 L 264.71875 101.640625 L 263.890625 101.769531 L 263.039063 101.878906 L 260.574219 102.078125 L 259.773438 102.078125 L 258.984375 102.109375 L 256.972656 102.042969 L 256.023438 101.980469 L 255.019531 101.910156 L 254.054688 101.769531 L 253.128906 101.640625 L 251.351563 101.308594 L 250.382813 101.09375 L 249.558594 100.863281 L 248.628906 100.613281 L 247.808594 100.304688 L 247.066406 100.058594 L 246.179688 99.726563 L 245.355469 99.351563 L 240.671875 96.992188 L 250.347656 88.265625 L 250.039063 87.996094 L 249.601563 87.554688 L 249.28125 87.128906 L 248.980469 86.722656 L 248.652344 86.148438 L 248.398438 85.566406 L 248.214844 84.953125 L 248.113281 84.441406 L 248.003906 83.832031 L 248.003906 82.734375 L 248.0625 81.992188 L 248.195313 81.40625 L 248.300781 80.921875 L 248.472656 80.261719 L 248.695313 79.652344 L 248.992188 78.90625 L 249.351563 78.324219 L 249.640625 77.820313 L 250.382813 76.746094 L 251.242188 75.804688 L 251.753906 75.296875 L 252.339844 74.796875 L 252.816406 74.457031 L 253.378906 74.019531 L 253.972656 73.683594 L 254.46875 73.351563 L 255.1875 72.972656 L 256.355469 72.421875 L 257.066406 72.125 L 257.738281 71.863281 L 258.4375 71.652344 L 259.121094 71.433594 L 259.878906 71.257813 L 260.511719 71.105469 L 261.296875 70.917969 L 262.03125 70.8125 L 262.789063 70.675781 L 263.636719 70.601563 L 265.117188 70.476563 L 265.953125 70.4375 L 267.5625 70.4375 L 268.382813 70.472656 L 269.21875 70.5 L 270.113281 70.574219 L 271.753906 70.773438 L 273.394531 71.003906 L 273.648438 71.054688 L 292.390625 71.054688 L 297.070313 76.582031 L 304.578125 71.054688 L 326.355469 71.054688 L 326.921875 70.917969 L 327.652344 70.8125 L 328.410156 70.675781 L 329.257813 70.601563 L 330.738281 70.476563 L 331.574219 70.4375 L 333.183594 70.4375 L 334.007813 70.472656 L 334.839844 70.5 L 335.738281 70.574219 L 337.378906 70.773438 L 339.015625 71.003906 L 339.890625 71.179688 L 341.445313 71.5 L 343.039063 71.917969 L 344.449219 72.386719 L 345.027344 72.589844 L 345.414063 71.054688 L 404.421875 71.054688 L 401.535156 82.46875 L 400.898438 82.46875 L 398.984375 90.046875 L 399.289063 90.046875 L 409.253906 71.054688 L 423.199219 71.054688 L 426.824219 81.28125 L 435.988281 71.054688 L 450.46875 71.054688 L 450.230469 92.152344 L 454.554688 88.25 L 454.265625 88 L 453.902344 87.636719 L 453.464844 87.136719 L 453.132813 86.605469 L 452.878906 86.148438 L 452.628906 85.578125 L 452.296875 84.472656 L 452.238281 83.839844 L 452.183594 83.238281 L 452.234375 82.628906 L 452.273438 82.109375 L 452.367188 81.5 L 452.492188 80.917969 L 452.691406 80.175781 L 452.941406 79.582031 L 453.183594 78.984375 L 453.496094 78.398438 L 453.835938 77.820313 L 454.222656 77.253906 L 454.613281 76.746094 L 455.050781 76.222656 L 455.972656 75.296875 L 456.5625 74.796875 L 457.035156 74.460938 L 457.566406 74.042969 L 458.152344 73.691406 L 458.695313 73.351563 L 459.34375 72.988281 L 460.019531 72.671875 L 460.589844 72.417969 L 461.226563 72.136719 L 461.964844 71.859375 L 462.652344 71.644531 L 463.351563 71.433594 L 464.058594 71.261719 L 464.703125 71.105469 L 465.503906 70.914063 L 466.261719 70.8125 L 467.003906 70.679688 L 467.824219 70.601563 L 469.308594 70.476563 L 470.144531 70.4375 L 471.753906 70.4375 L 472.578125 70.472656 L 473.410156 70.5 L 474.304688 70.574219 L 475.972656 70.773438 L 477.628906 71.003906 L 478.445313 71.175781 L 479.242188 71.335938 L 480.011719 71.5 L 480.863281 71.714844 L 481.601563 71.917969 L 482.421875 72.179688 L 483.027344 72.390625 L 488.402344 74.253906 L 479.410156 82.613281 L 479.789063 82.8125 L 480.515625 83.269531 L 480.992188 83.589844 L 481.464844 84 L 481.816406 84.355469 L 482.121094 84.707031 L 482.449219 85.09375 L 482.761719 85.589844 L 483.023438 86.058594 L 483.261719 86.589844 L 483.449219 87.160156 L 483.554688 87.636719 L 483.644531 88.101563 L 483.710938 88.703125 L 483.710938 89.304688 L 483.652344 89.894531 L 483.484375 90.90625 L 483.296875 91.566406 L 483.09375 92.179688 L 482.828125 92.84375 L 482.574219 93.351563 L 482.320313 93.886719 L 481.945313 94.554688 L 481.15625 95.65625 L 480.621094 96.277344 L 480.105469 96.792969 L 479.554688 97.308594 L 478.964844 97.78125 L 478.363281 98.230469 L 477.664063 98.699219 L 476.890625 99.144531 L 476.136719 99.503906 L 475.410156 99.851563 L 474.578125 100.191406 L 473.738281 100.484375 L 472.195313 100.953125 L 471.339844 101.167969 L 470.539063 101.339844 L 469.714844 101.503906 L 468.921875 101.636719 L 468.113281 101.769531 L 467.230469 101.878906 L 466.425781 101.945313 L 465.664063 102.003906 L 464.800781 102.078125 L 463.964844 102.078125 L 463.179688 102.109375 L 462.136719 102.078125 L 461.191406 102.042969 L 459.242188 101.910156 L 458.273438 101.769531 L 457.359375 101.640625 L 456.429688 101.472656 L 455.53125 101.308594 L 454.609375 101.09375 L 453.734375 100.859375 L 452.855469 100.613281 L 452.019531 100.3125 L 451.234375 100.050781 L 450.410156 99.726563 L 450.144531 99.613281 L 450.128906 101.464844 L 433.816406 101.464844 L 434.265625 92.539063 L 426.050781 101.464844 L 418.609375 101.464844 L 414.925781 91.886719 L 410.273438 101.464844 L 368.289063 101.464844 L 373.089844 82.46875 L 367.308594 82.46875 L 362.503906 101.464844 L 346.097656 101.464844 L 350.898438 82.46875 L 342.527344 82.46875 L 342.996094 80.609375 L 340.84375 82.613281 L 341.21875 82.8125 L 342.015625 83.3125 L 342.445313 83.636719 L 342.796875 83.941406 L 343.269531 84.363281 L 343.578125 84.773438 L 343.765625 84.992188 L 344.214844 85.585938 L 344.480469 86.191406 L 344.660156 86.597656 L 344.996094 87.605469 L 345.0625 88.257813 L 345.105469 88.714844 L 345.105469 89.296875 L 345.066406 89.761719 L 345.015625 90.375 L 344.851563 91.027344 L 344.699219 91.570313 L 344.296875 92.761719 L 344.003906 93.347656 L 343.722656 93.957031 L 342.980469 95.113281 L 342.101563 96.230469 L 341.535156 96.792969 L 340.984375 97.308594 L 340.355469 97.8125 L 339.695313 98.277344 L 339.0625 98.699219 L 338.289063 99.144531 L 337.535156 99.503906 L 336.808594 99.851563 L 335.996094 100.183594 L 335.191406 100.476563 L 333.628906 100.953125 L 332.753906 101.171875 L 331.15625 101.503906 L 330.339844 101.640625 L 329.515625 101.769531 L 328.660156 101.878906 L 326.195313 102.078125 L 325.394531 102.078125 L 324.609375 102.109375 L 322.59375 102.042969 L 321.640625 101.980469 L 320.675781 101.910156 L 318.753906 101.640625 L 316.972656 101.308594 L 316.007813 101.09375 L 315.175781 100.863281 L 314.253906 100.609375 L 313.429688 100.304688 L 312.6875 100.058594 L 311.800781 99.726563 L 310.980469 99.351563 L 306.285156 97 L 315.96875 88.265625 L 315.664063 87.996094 L 315.222656 87.558594 L 314.902344 87.132813 L 314.59375 86.714844 L 314.28125 86.148438 L 314.027344 85.582031 L 313.835938 84.945313 L 313.738281 84.457031 L 313.628906 83.835938 L 313.628906 82.738281 L 313.683594 81.996094 L 313.816406 81.410156 L 313.921875 80.914063 L 314.050781 80.445313 L 302.796875 88.550781 L 299.53125 101.464844 L 283.152344 101.464844 L 286.671875 87.542969 Z M 480.285156 31.648438 L 480.074219 31.328125 L 479.601563 30.476563 L 479.40625 29.988281 L 479.261719 29.625 L 479.085938 29.136719 L 478.921875 28.578125 L 478.820313 28.054688 L 478.734375 27.574219 L 478.648438 26.613281 L 478.648438 25.601563 L 478.734375 24.636719 L 478.839844 24.078125 L 478.921875 23.667969 L 479.085938 23.058594 L 479.402344 22.261719 L 479.601563 21.761719 L 480.074219 20.914063 L 480.632813 20.074219 L 481.21875 19.402344 L 481.503906 19.082031 L 481.859375 18.722656 L 482.265625 18.367188 L 482.644531 18.074219 L 482.980469 17.820313 L 483.503906 17.476563 L 483.921875 17.265625 L 484.316406 17.042969 L 484.828125 16.839844 L 485.136719 16.71875 L 485.605469 16.527344 L 486.253906 16.347656 L 486.703125 16.269531 L 487.054688 16.199219 L 487.730469 16.085938 L 488.1875 16.085938 L 488.671875 16.039063 L 489.195313 16.085938 L 489.6875 16.085938 L 490.6875 16.265625 L 491.132813 16.355469 L 491.757813 16.527344 L 492.21875 16.714844 L 492.546875 16.84375 L 493.046875 17.042969 L 493.886719 17.511719 L 494.355469 17.824219 L 495.058594 18.363281 L 495.796875 19.007813 L 496.4375 19.742188 L 496.976563 20.441406 L 497.285156 20.90625 L 497.507813 21.304688 L 497.699219 21.652344 L 498.003906 22.265625 L 498.136719 22.699219 L 498.277344 23.050781 L 498.449219 23.683594 L 498.53125 24.125 L 498.601563 24.496094 L 498.691406 24.988281 L 498.746094 25.605469 L 498.746094 26.605469 L 498.691406 27.226563 L 498.601563 27.726563 L 498.539063 28.054688 L 498.449219 28.566406 L 498.277344 29.144531 L 498.148438 29.492188 L 498.003906 29.980469 L 497.699219 30.589844 L 497.503906 30.945313 L 497.28125 31.335938 L 496.730469 32.167969 L 496.15625 32.824219 L 495.796875 33.234375 L 495.128906 33.820313 L 494.726563 34.167969 L 493.890625 34.726563 L 493.488281 34.953125 L 493.035156 35.199219 L 492.550781 35.394531 L 492.21875 35.527344 L 491.746094 35.714844 L 491.128906 35.886719 L 490.671875 35.976563 L 490.304688 36.042969 L 489.8125 36.132813 L 489.199219 36.1875 L 488.199219 36.1875 L 487.601563 36.132813 L 487.050781 36.042969 L 486.710938 35.972656 L 486.257813 35.890625 L 485.617188 35.714844 L 485.136719 35.527344 L 484.324219 35.199219 L 483.929688 34.980469 L 483.496094 34.765625 L 482.972656 34.417969 L 482.878906 34.34375 C 484.171875 36.191406 484.949219 38.4375 485.003906 40.996094 L 485.0625 42.601563 L 485.0625 42.660156 C 485.066406 47.527344 482.886719 51.492188 478.992188 53.652344 L 486.933594 69.539063 L 465.449219 69.539063 L 457.171875 55.6875 L 454.683594 55.6875 L 454.683594 69.539063 L 435.390625 69.539063 L 435.390625 28.722656 L 471.230469 28.722656 C 474.609375 28.703125 477.816406 29.753906 480.285156 31.648438 Z M 8.125 90.921875 C 7.878906 90.5 7.640625 90.070313 7.40625 89.636719 C 7.171875 89.207031 6.941406 88.773438 6.71875 88.339844 C 6.5 87.902344 6.273438 87.460938 6.058594 87.019531 C 5.847656 86.574219 5.640625 86.128906 5.433594 85.683594 C 5.230469 85.234375 5.039063 84.78125 4.839844 84.328125 C 4.648438 83.875 4.460938 83.417969 4.277344 82.957031 C 4.097656 82.496094 3.921875 82.03125 3.75 81.566406 C 3.582031 81.101563 3.417969 80.632813 3.253906 80.164063 C 3.09375 79.691406 2.941406 79.21875 2.792969 78.746094 C 2.644531 78.269531 2.5 77.789063 2.363281 77.308594 C 2.226563 76.828125 2.09375 76.34375 1.96875 75.859375 C 1.84375 75.375 1.726563 74.886719 1.613281 74.398438 C 1.5 73.910156 1.390625 73.417969 1.292969 72.925781 C 1.1875 72.429688 1.09375 71.933594 1.003906 71.433594 C 0.914063 70.9375 0.835938 70.4375 0.753906 69.933594 C 0.675781 69.433594 0.605469 68.925781 0.539063 68.421875 C 0.476563 67.914063 0.421875 67.40625 0.367188 66.898438 C 0.3125 66.390625 0.269531 65.875 0.226563 65.363281 C 0.191406 64.847656 0.15625 64.332031 0.128906 63.816406 C 0.105469 63.300781 0.0859375 62.78125 0.0703125 62.265625 C 0.0585938 61.742188 0.0507813 61.222656 0.0507813 60.699219 C 0.0507813 60.179688 0.0585938 59.65625 0.0703125 59.136719 C 0.0859375 58.617188 0.105469 58.097656 0.128906 57.582031 C 0.15625 57.066406 0.1875 56.550781 0.230469 56.035156 C 0.269531 55.523438 0.3125 55.011719 0.367188 54.503906 C 0.421875 53.992188 0.476563 53.488281 0.539063 52.980469 C 0.605469 52.472656 0.675781 51.96875 0.753906 51.464844 C 0.835938 50.960938 0.914063 50.460938 1.003906 49.964844 C 1.09375 49.464844 1.1875 48.96875 1.292969 48.476563 C 1.390625 47.980469 1.5 47.488281 1.613281 47 C 1.726563 46.507813 1.84375 46.023438 1.96875 45.539063 C 2.09375 45.054688 2.226563 44.570313 2.363281 44.089844 C 2.5 43.609375 2.644531 43.132813 2.792969 42.65625 C 2.941406 42.179688 3.09375 41.707031 3.253906 41.234375 C 3.417969 40.765625 3.582031 40.296875 3.75 39.832031 C 3.917969 39.367188 4.097656 38.90625 4.277344 38.445313 C 4.460938 37.984375 4.648438 37.527344 4.84375 37.070313 C 5.039063 36.617188 5.230469 36.164063 5.4375 35.714844 C 5.640625 35.269531 5.847656 34.824219 6.058594 34.378906 C 6.273438 33.9375 6.5 33.496094 6.71875 33.058594 C 6.945313 32.621094 7.171875 32.1875 7.40625 31.757813 C 7.640625 31.328125 7.878906 30.902344 8.125 30.476563 C 8.367188 30.050781 8.617188 29.632813 8.875 29.214844 C 9.128906 28.796875 9.386719 28.378906 9.652344 27.96875 C 9.917969 27.558594 10.183594 27.152344 10.460938 26.746094 C 10.730469 26.339844 11.007813 25.941406 11.289063 25.542969 C 11.578125 25.148438 11.859375 24.753906 12.152344 24.363281 C 12.445313 23.972656 12.742188 23.585938 13.042969 23.203125 C 13.34375 22.820313 13.648438 22.441406 13.960938 22.066406 C 14.269531 21.691406 14.585938 21.320313 14.902344 20.953125 C 15.222656 20.582031 15.542969 20.21875 15.871094 19.859375 C 16.203125 19.5 16.53125 19.144531 16.863281 18.792969 C 17.203125 18.441406 17.539063 18.09375 17.882813 17.75 C 18.226563 17.402344 18.578125 17.066406 18.925781 16.730469 C 19.277344 16.394531 19.636719 16.0625 19.996094 15.734375 C 20.355469 15.40625 20.71875 15.082031 21.089844 14.765625 C 21.457031 14.445313 21.832031 14.128906 22.207031 13.820313 C 22.582031 13.511719 22.960938 13.207031 23.339844 12.90625 C 23.722656 12.601563 24.109375 12.308594 24.496094 12.015625 C 24.886719 11.722656 25.28125 11.433594 25.679688 11.152344 C 26.082031 10.871094 26.476563 10.589844 26.882813 10.316406 C 27.285156 10.042969 27.695313 9.773438 28.105469 9.511719 C 28.515625 9.246094 28.929688 8.988281 29.347656 8.734375 C 29.765625 8.480469 30.1875 8.230469 30.613281 7.984375 C 31.035156 7.742188 31.464844 7.5 31.890625 7.269531 C 32.328125 7.03125 32.757813 6.804688 33.195313 6.578125 C 33.632813 6.355469 34.078125 6.136719 34.515625 5.921875 C 34.960938 5.707031 35.402344 5.5 35.851563 5.296875 C 36.300781 5.09375 36.753906 4.894531 37.210938 4.699219 C 37.660156 4.507813 38.117188 4.320313 38.582031 4.140625 C 39.035156 3.957031 39.496094 3.78125 39.964844 3.613281 C 40.429688 3.4375 40.898438 3.273438 41.367188 3.113281 C 41.839844 2.953125 42.308594 2.800781 42.785156 2.652344 C 43.261719 2.503906 43.742188 2.359375 44.21875 2.222656 C 44.707031 2.085938 45.183594 1.953125 45.667969 1.828125 C 46.15625 1.703125 46.640625 1.585938 47.132813 1.472656 C 47.621094 1.359375 48.113281 1.25 48.609375 1.148438 C 49.101563 1.046875 49.597656 0.949219 50.09375 0.863281 C 50.59375 0.773438 51.09375 0.6875 51.59375 0.613281 C 52.101563 0.535156 52.601563 0.464844 53.109375 0.398438 C 53.613281 0.335938 54.121094 0.277344 54.632813 0.222656 C 55.144531 0.171875 55.65625 0.125 56.167969 0.0859375 C 56.683594 0.046875 57.203125 0.015625 57.714844 -0.0117188 C 58.230469 -0.0390625 58.753906 -0.0585938 59.265625 -0.0703125 C 59.789063 -0.0820313 60.308594 -0.0898438 60.835938 -0.0898438 C 61.351563 -0.0898438 61.878906 -0.0820313 62.394531 -0.0703125 C 62.914063 -0.0585938 63.433594 -0.0390625 63.957031 -0.0117188 C 64.464844 0.015625 64.980469 0.046875 65.496094 0.0859375 C 66.007813 0.125 66.519531 0.171875 67.03125 0.222656 C 67.539063 0.277344 68.046875 0.335938 68.554688 0.398438 C 69.058594 0.464844 69.5625 0.535156 70.066406 0.613281 C 70.566406 0.6875 71.066406 0.773438 71.566406 0.863281 C 72.0625 0.949219 72.558594 1.046875 73.054688 1.148438 C 73.546875 1.25 74.039063 1.359375 74.53125 1.472656 C 75.019531 1.585938 75.507813 1.703125 75.992188 1.832031 C 76.476563 1.957031 76.964844 2.085938 77.441406 2.222656 C 77.921875 2.359375 78.398438 2.503906 78.878906 2.652344 C 79.347656 2.800781 79.828125 2.953125 80.292969 3.113281 C 80.765625 3.273438 81.234375 3.4375 81.703125 3.609375 C 82.164063 3.78125 82.628906 3.957031 83.089844 4.140625 C 83.542969 4.320313 84.003906 4.507813 84.460938 4.699219 C 84.910156 4.894531 85.363281 5.09375 85.8125 5.296875 C 86.257813 5.5 86.707031 5.707031 87.148438 5.921875 C 87.589844 6.136719 88.03125 6.355469 88.46875 6.578125 C 88.90625 6.804688 89.339844 7.03125 89.769531 7.269531 C 90.203125 7.503906 90.628906 7.742188 91.050781 7.984375 C 91.472656 8.230469 91.894531 8.480469 92.3125 8.734375 C 92.730469 8.988281 93.144531 9.246094 93.554688 9.511719 C 93.964844 9.773438 94.378906 10.042969 94.777344 10.316406 C 95.183594 10.589844 95.589844 10.871094 95.980469 11.152344 C 96.378906 11.433594 96.769531 11.722656 97.160156 12.015625 C 97.550781 12.304688 97.9375 12.601563 98.320313 12.902344 C 98.707031 13.203125 99.085938 13.511719 99.460938 13.820313 C 99.835938 14.132813 100.210938 14.445313 100.574219 14.765625 C 100.941406 15.082031 101.304688 15.40625 101.664063 15.734375 C 102.023438 16.0625 102.382813 16.394531 102.734375 16.730469 C 103.089844 17.066406 103.433594 17.40625 103.777344 17.746094 C 104.117188 18.089844 104.460938 18.4375 104.796875 18.792969 C 105.128906 19.144531 105.464844 19.5 105.789063 19.859375 C 106.117188 20.21875 106.441406 20.582031 106.761719 20.953125 C 107.078125 21.320313 107.394531 21.691406 107.703125 22.066406 C 108.011719 22.441406 108.316406 22.820313 108.617188 23.203125 C 108.921875 23.585938 109.214844 23.972656 109.507813 24.363281 C 109.800781 24.753906 110.089844 25.148438 110.371094 25.542969 C 110.652344 25.941406 110.929688 26.34375 111.203125 26.746094 C 111.476563 27.152344 111.746094 27.558594 112.011719 27.96875 C 112.273438 28.378906 112.53125 28.792969 112.789063 29.210938 C 113.046875 29.628906 113.296875 30.050781 113.539063 30.476563 C 113.78125 30.902344 114.019531 31.328125 114.253906 31.757813 C 114.488281 32.1875 114.71875 32.621094 114.945313 33.0625 C 115.171875 33.496094 115.386719 33.9375 115.601563 34.378906 C 115.8125 34.824219 116.023438 35.269531 116.226563 35.71875 C 116.429688 36.167969 116.628906 36.617188 116.820313 37.070313 C 117.011719 37.527344 117.199219 37.984375 117.382813 38.445313 C 117.5625 38.902344 117.742188 39.367188 117.910156 39.828125 C 118.085938 40.296875 118.246094 40.765625 118.40625 41.234375 C 118.566406 41.707031 118.722656 42.179688 118.871094 42.652344 C 119.019531 43.128906 119.160156 43.605469 119.296875 44.089844 C 119.433594 44.570313 119.566406 45.054688 119.691406 45.539063 C 119.816406 46.023438 119.9375 46.511719 120.050781 47 C 120.164063 47.488281 120.269531 47.980469 120.371094 48.472656 C 120.472656 48.96875 120.570313 49.464844 120.660156 49.964844 C 120.746094 50.460938 120.835938 50.960938 120.90625 51.460938 C 120.984375 51.964844 121.058594 52.472656 121.121094 52.976563 C 121.183594 53.484375 121.242188 53.992188 121.296875 54.5 C 121.347656 55.007813 121.394531 55.523438 121.433594 56.035156 C 121.472656 56.550781 121.503906 57.066406 121.53125 57.582031 C 121.558594 58.097656 121.578125 58.617188 121.589844 59.132813 C 121.605469 59.65625 121.609375 60.175781 121.609375 60.699219 C 121.609375 61.21875 121.605469 61.742188 121.589844 62.261719 C 121.578125 62.78125 121.558594 63.300781 121.53125 63.816406 C 121.503906 64.332031 121.472656 64.847656 121.433594 65.363281 C 121.394531 65.875 121.347656 66.386719 121.296875 66.894531 C 121.242188 67.40625 121.1875 67.914063 121.121094 68.417969 C 121.058594 68.925781 120.984375 69.429688 120.90625 69.933594 C 120.835938 70.4375 120.746094 70.9375 120.660156 71.433594 C 120.570313 71.933594 120.472656 72.429688 120.371094 72.921875 C 120.269531 73.417969 120.164063 73.910156 120.050781 74.398438 C 119.9375 74.890625 119.816406 75.375 119.691406 75.859375 C 119.566406 76.34375 119.433594 76.828125 119.296875 77.308594 C 119.160156 77.789063 119.019531 78.265625 118.871094 78.746094 C 118.722656 79.21875 118.566406 79.691406 118.40625 80.160156 C 118.253906 80.632813 118.085938 81.101563 117.910156 81.566406 C 117.742188 82.03125 117.5625 82.496094 117.382813 82.953125 C 117.199219 83.414063 117.011719 83.871094 116.820313 84.328125 C 116.628906 84.78125 116.429688 85.230469 116.226563 85.679688 C 116.023438 86.128906 115.8125 86.574219 115.601563 87.019531 C 115.386719 87.460938 115.171875 87.902344 114.945313 88.335938 C 114.71875 88.773438 114.488281 89.207031 114.253906 89.636719 C 114.019531 90.070313 113.78125 90.496094 113.535156 90.921875 C 112.316406 93.039063 110.972656 95.082031 109.507813 97.035156 C 109.214844 97.425781 108.921875 97.8125 108.617188 98.195313 C 108.316406 98.578125 108.011719 98.957031 107.703125 99.332031 C 107.394531 99.707031 107.078125 100.078125 106.757813 100.445313 C 106.441406 100.816406 106.117188 101.179688 105.789063 101.539063 C 105.464844 101.898438 105.132813 102.253906 104.796875 102.605469 C 104.464844 102.957031 104.121094 103.304688 103.777344 103.648438 C 103.433594 103.992188 103.089844 104.332031 102.734375 104.667969 C 102.382813 105.003906 102.027344 105.335938 101.664063 105.664063 C 101.304688 105.992188 100.941406 106.3125 100.574219 106.632813 C 100.210938 106.953125 99.839844 107.265625 99.460938 107.578125 C 99.085938 107.886719 98.707031 108.191406 98.328125 108.492188 C 97.941406 108.792969 97.554688 109.089844 97.164063 109.382813 C 96.773438 109.675781 96.378906 109.960938 95.984375 110.242188 C 95.589844 110.527344 95.183594 110.804688 94.78125 111.078125 C 94.378906 111.355469 93.96875 111.621094 93.554688 111.886719 C 93.144531 112.152344 92.730469 112.410156 92.316406 112.664063 C 91.898438 112.917969 91.476563 113.167969 91.050781 113.410156 C 90.628906 113.65625 90.203125 113.898438 89.769531 114.128906 C 89.339844 114.363281 88.902344 114.59375 88.464844 114.820313 C 88.027344 115.042969 87.589844 115.261719 87.148438 115.476563 C 86.710938 115.691406 86.261719 115.898438 85.8125 116.101563 C 85.363281 116.304688 84.910156 116.503906 84.460938 116.699219 C 84.003906 116.890625 83.542969 117.078125 83.089844 117.257813 C 82.628906 117.441406 82.164063 117.617188 81.695313 117.789063 C 81.230469 117.960938 80.765625 118.125 80.296875 118.28125 C 79.828125 118.445313 79.351563 118.597656 78.878906 118.746094 C 78.398438 118.894531 77.921875 119.039063 77.441406 119.175781 C 76.964844 119.3125 76.476563 119.445313 75.992188 119.570313 C 75.507813 119.695313 75.019531 119.8125 74.53125 119.925781 C 74.039063 120.039063 73.546875 120.148438 73.058594 120.25 C 72.5625 120.351563 72.066406 120.445313 71.570313 120.535156 C 71.070313 120.625 70.566406 120.707031 70.066406 120.785156 C 69.5625 120.863281 69.058594 120.933594 68.554688 121 C 68.046875 121.0625 67.539063 121.121094 67.03125 121.171875 C 66.519531 121.226563 66.007813 121.269531 65.492188 121.3125 C 64.980469 121.351563 64.464844 121.382813 63.953125 121.410156 C 63.429688 121.4375 62.914063 121.457031 62.394531 121.46875 C 61.878906 121.484375 61.351563 121.488281 60.835938 121.488281 C 60.308594 121.488281 59.789063 121.480469 59.265625 121.46875 C 58.753906 121.457031 58.230469 121.4375 57.714844 121.410156 C 57.195313 121.382813 56.679688 121.351563 56.167969 121.308594 C 55.652344 121.269531 55.144531 121.226563 54.632813 121.171875 C 54.128906 121.121094 53.617188 121.0625 53.109375 121 C 52.601563 120.933594 52.097656 120.863281 51.59375 120.785156 C 51.09375 120.707031 50.59375 120.625 50.097656 120.535156 C 49.597656 120.445313 49.101563 120.351563 48.605469 120.25 C 48.113281 120.148438 47.621094 120.039063 47.132813 119.925781 C 46.644531 119.8125 46.15625 119.695313 45.667969 119.566406 C 45.183594 119.441406 44.703125 119.3125 44.21875 119.175781 C 43.738281 119.035156 43.261719 118.894531 42.785156 118.746094 C 42.3125 118.597656 41.839844 118.445313 41.363281 118.285156 C 40.894531 118.125 40.425781 117.960938 39.964844 117.789063 C 39.503906 117.617188 39.035156 117.441406 38.582031 117.257813 C 38.117188 117.078125 37.660156 116.890625 37.210938 116.695313 C 36.753906 116.503906 36.300781 116.304688 35.851563 116.101563 C 35.402344 115.898438 34.960938 115.691406 34.511719 115.476563 C 34.070313 115.261719 33.628906 115.042969 33.191406 114.820313 C 32.757813 114.59375 32.328125 114.363281 31.894531 114.132813 C 31.464844 113.898438 31.035156 113.65625 30.609375 113.410156 C 30.1875 113.167969 29.761719 112.917969 29.34375 112.664063 C 28.929688 112.410156 28.515625 112.152344 28.105469 111.886719 C 27.695313 111.625 27.285156 111.355469 26.878906 111.078125 C 26.476563 110.804688 26.078125 110.527344 25.675781 110.246094 C 25.28125 109.960938 24.886719 109.675781 24.496094 109.382813 C 24.109375 109.089844 23.722656 108.792969 23.339844 108.492188 C 22.960938 108.191406 22.582031 107.886719 22.203125 107.574219 C 21.832031 107.265625 21.457031 106.953125 21.089844 106.632813 C 20.71875 106.316406 20.355469 105.992188 19.992188 105.664063 C 19.636719 105.335938 19.277344 105.003906 18.925781 104.667969 C 18.582031 104.332031 18.226563 103.992188 17.886719 103.652344 C 17.539063 103.308594 17.203125 102.960938 16.863281 102.605469 C 16.53125 102.253906 16.203125 101.898438 15.871094 101.539063 C 15.542969 101.179688 15.21875 100.816406 14.902344 100.445313 C 14.585938 100.078125 14.265625 99.707031 13.960938 99.332031 C 13.648438 98.957031 13.34375 98.578125 13.042969 98.195313 C 12.742188 97.8125 12.445313 97.425781 12.152344 97.035156 C 10.691406 95.082031 9.34375 93.039063 8.125 90.921875 Z M 422.703125 43.15625 L 422.703125 54.613281 L 427.996094 54.613281 L 427.996094 69.539063 L 382.324219 69.539063 L 382.324219 28.941406 L 426.183594 28.941406 L 426.183594 43.15625 Z M 352.066406 28.539063 L 371.582031 28.539063 L 371.582031 69.324219 L 352.066406 69.324219 Z M 344.183594 42.941406 L 344.183594 55.996094 L 322.886719 55.996094 L 322.886719 69.445313 L 304.175781 69.445313 L 304.175781 28.847656 L 348.15625 28.847656 L 348.15625 42.941406 Z M 274.65625 28.722656 L 294.167969 28.722656 L 294.167969 69.539063 L 274.65625 69.539063 Z M 154.253906 40.8125 L 154.253906 28.847656 L 173.140625 28.847656 L 173.140625 69.539063 L 154.359375 69.539063 L 143.070313 56.566406 L 143.070313 69.539063 L 123.777344 69.539063 L 123.777344 28.722656 L 143.664063 28.722656 Z M 203.121094 43.34375 L 202.589844 43.367188 L 202.164063 43.390625 L 201.777344 43.453125 L 201.351563 43.527344 L 201.046875 43.601563 L 200.796875 43.683594 L 200.453125 43.820313 L 200.136719 43.957031 L 199.949219 44.050781 L 199.8125 44.140625 L 199.5625 44.328125 L 199.105469 44.703125 L 198.953125 44.867188 L 198.789063 45.050781 L 198.671875 45.214844 L 198.507813 45.457031 L 198.195313 46 L 198.113281 46.171875 L 197.992188 46.484375 L 197.765625 47.074219 L 197.710938 47.332031 L 197.527344 48.042969 L 197.445313 48.613281 L 197.394531 49.3125 L 197.367188 49.980469 L 197.394531 50.679688 L 197.445313 51.378906 L 197.539063 52.035156 L 197.695313 52.789063 L 197.769531 53.113281 L 197.828125 53.328125 L 197.949219 53.648438 L 198.066406 53.96875 L 198.320313 54.515625 L 198.421875 54.683594 L 198.566406 54.910156 L 198.753906 55.160156 L 199.128906 55.613281 L 199.535156 55.984375 L 199.679688 56.09375 L 199.914063 56.238281 L 200.152344 56.375 L 200.359375 56.464844 L 201.101563 56.742188 L 201.398438 56.8125 L 201.773438 56.894531 L 202.210938 56.9375 L 202.671875 56.984375 L 203.671875 56.984375 L 204.054688 56.960938 L 204.429688 56.921875 L 204.753906 56.863281 L 205.117188 56.773438 L 205.472656 56.679688 L 205.800781 56.570313 L 206.039063 56.484375 L 206.226563 56.390625 L 206.558594 56.199219 L 206.738281 56.101563 L 206.921875 55.957031 L 207.136719 55.796875 L 207.476563 55.457031 L 207.605469 55.296875 L 207.757813 55.085938 L 207.921875 54.839844 L 208.09375 54.550781 L 208.21875 54.335938 L 208.308594 54.128906 L 208.421875 53.828125 L 208.523438 53.542969 L 208.714844 52.832031 L 208.78125 52.496094 L 208.855469 52.097656 L 208.902344 51.714844 L 208.953125 51.277344 L 208.980469 50.875 L 209.007813 50.414063 L 209.007813 50.035156 L 208.980469 49.296875 L 208.90625 48.566406 L 208.863281 48.273438 L 208.796875 47.917969 L 208.726563 47.601563 L 208.546875 46.96875 L 208.472656 46.785156 L 208.058594 45.890625 L 207.894531 45.640625 L 207.753906 45.398438 L 207.402344 44.96875 L 207.195313 44.742188 L 207.046875 44.59375 L 206.878906 44.453125 L 206.617188 44.261719 L 206.367188 44.09375 L 206.214844 43.996094 L 205.972656 43.898438 L 205.578125 43.726563 L 205.34375 43.632813 L 204.671875 43.460938 L 204.34375 43.40625 L 203.96875 43.363281 L 203.554688 43.34375 Z M 203.121094 43.34375 "/>
</g>
<path style=" stroke:none;fill-rule:evenodd;fill:rgb(10.594177%,9.812927%,9.423828%);fill-opacity:1;" d="M 136.101563 79.4375 L 135.089844 83.503906 L 146.199219 83.503906 L 144.84375 88.859375 L 133.730469 88.859375 L 131.300781 98.433594 L 121.140625 98.433594 L 127.335938 74.082031 L 149.710938 74.082031 L 148.355469 79.4375 Z M 136.101563 79.4375 "/>
<path style=" stroke:none;fill-rule:evenodd;fill:rgb(10.594177%,9.812927%,9.423828%);fill-opacity:1;" d="M 159.308594 98.433594 L 149.152344 98.433594 L 155.339844 74.082031 L 165.464844 74.082031 Z M 159.308594 98.433594 "/>
<path style=" stroke:none;fill-rule:evenodd;fill:rgb(10.594177%,9.812927%,9.423828%);fill-opacity:1;" d="M 180.980469 78.945313 L 181.964844 78.945313 L 183.226563 78.976563 L 184.425781 79.039063 L 185.011719 79.101563 L 185.566406 79.191406 L 186.089844 79.316406 L 186.578125 79.46875 L 187.046875 79.65625 L 187.410156 79.839844 L 187.597656 79.960938 L 187.753906 80.085938 L 187.878906 80.238281 L 187.996094 80.394531 L 188.089844 80.546875 L 188.179688 80.699219 L 188.242188 80.886719 L 188.273438 81.070313 L 188.304688 81.285156 L 188.304688 81.503906 L 188.273438 81.75 L 188.242188 81.964844 L 188.058594 82.457031 L 187.96875 82.671875 L 187.84375 82.855469 L 187.691406 83.074219 L 187.535156 83.226563 L 187.378906 83.410156 L 187.195313 83.5625 L 186.796875 83.84375 L 186.335938 84.085938 L 185.839844 84.304688 L 185.320313 84.488281 L 184.761719 84.640625 L 184.179688 84.734375 L 183.5625 84.828125 L 182.949219 84.917969 L 181.6875 84.980469 L 180.425781 85.011719 L 179.441406 85.011719 Z M 188.609375 88.457031 L 189.628906 88.335938 L 190.644531 88.121094 L 191.566406 87.90625 L 192.492188 87.597656 L 193.320313 87.289063 L 194.121094 86.917969 L 194.859375 86.488281 L 195.539063 86.058594 L 196.152344 85.597656 L 196.738281 85.070313 L 197.261719 84.550781 L 197.90625 83.71875 L 198.089844 83.410156 L 198.246094 83.132813 L 198.398438 82.824219 L 198.554688 82.519531 L 198.675781 82.210938 L 198.863281 81.59375 L 198.953125 81.101563 L 199.015625 80.640625 L 199.046875 80.210938 L 199.046875 79.777344 L 199.015625 79.375 L 198.828125 78.578125 L 198.675781 78.238281 L 198.492188 77.871094 L 198.308594 77.5625 L 198.058594 77.222656 L 197.476563 76.636719 L 197.171875 76.390625 L 196.796875 76.144531 L 196.429688 75.898438 L 196.027344 75.683594 L 195.570313 75.46875 L 195.105469 75.285156 L 194.644531 75.097656 L 193.597656 74.792969 L 193.046875 74.667969 L 192.492188 74.542969 L 191.878906 74.421875 L 191.257813 74.328125 L 190.644531 74.265625 L 189.996094 74.207031 L 188.640625 74.113281 L 187.226563 74.082031 L 172.054688 74.082031 L 165.898438 98.433594 L 176.054688 98.433594 L 178.425781 89.074219 L 178.515625 89.074219 L 185.71875 98.433594 L 198.308594 98.433594 Z M 188.609375 88.457031 "/>
<path style=" stroke:none;fill-rule:evenodd;fill:rgb(10.594177%,9.812927%,9.423828%);fill-opacity:1;" d="M 215.976563 79.4375 L 214.960938 83.503906 L 226.378906 83.503906 L 225.023438 88.859375 L 213.605469 88.859375 L 212.527344 93.078125 L 224.5625 93.078125 L 223.210938 98.433594 L 201.046875 98.433594 L 207.203125 74.082031 L 229.394531 74.082031 L 228.046875 79.4375 Z M 215.976563 79.4375 "/>
<path style=" stroke:none;fill-rule:evenodd;fill:rgb(10.594177%,9.812927%,9.423828%);fill-opacity:1;" d="M 273.195313 80.363281 L 272.546875 80.023438 L 271.871094 79.714844 L 271.132813 79.4375 L 270.359375 79.191406 L 269.53125 79.007813 L 268.671875 78.886719 L 267.777344 78.792969 L 266.855469 78.761719 L 266.144531 78.792969 L 265.378906 78.886719 L 264.976563 78.945313 L 264.574219 79.039063 L 264.210938 79.132813 L 263.839844 79.253906 L 263.503906 79.40625 L 263.191406 79.5625 L 262.882813 79.714844 L 262.636719 79.902344 L 262.386719 80.085938 L 262.210938 80.300781 L 262.085938 80.546875 L 261.992188 80.792969 L 261.960938 80.917969 L 261.960938 81.164063 L 261.992188 81.285156 L 262.085938 81.503906 L 262.210938 81.6875 L 262.386719 81.871094 L 262.636719 82.054688 L 262.882813 82.210938 L 263.191406 82.335938 L 263.839844 82.578125 L 264.546875 82.792969 L 265.253906 82.980469 L 265.929688 83.101563 L 268.394531 83.59375 L 269.34375 83.777344 L 270.242188 83.996094 L 271.132813 84.242188 L 271.929688 84.488281 L 272.703125 84.792969 L 273.441406 85.105469 L 274.089844 85.441406 L 274.671875 85.808594 L 274.921875 85.996094 L 275.410156 86.425781 L 275.59375 86.671875 L 275.78125 86.890625 L 275.964844 87.136719 L 276.214844 87.6875 L 276.394531 88.242188 L 276.425781 88.550781 L 276.453125 88.859375 L 276.453125 89.164063 L 276.425781 89.507813 L 276.394531 89.875 L 276.300781 90.246094 L 276.179688 90.675781 L 276.023438 91.136719 L 275.871094 91.597656 L 275.65625 92.03125 L 275.441406 92.492188 L 275.164063 92.921875 L 274.886719 93.355469 L 274.214844 94.214844 L 273.808594 94.617188 L 273.378906 95.015625 L 272.921875 95.386719 L 272.394531 95.753906 L 271.839844 96.125 L 271.253906 96.460938 L 269.964844 97.078125 L 269.285156 97.355469 L 268.605469 97.601563 L 267.191406 98.03125 L 266.453125 98.21875 L 264.976563 98.523438 L 264.238281 98.648438 L 263.46875 98.769531 L 262.730469 98.863281 L 261.960938 98.925781 L 261.21875 98.984375 L 260.449219 99.050781 L 259.714844 99.050781 L 258.972656 99.078125 L 258.050781 99.050781 L 257.128906 99.019531 L 256.234375 98.957031 L 255.34375 98.894531 L 254.480469 98.769531 L 253.617188 98.648438 L 252.785156 98.492188 L 251.960938 98.339844 L 251.128906 98.15625 L 250.355469 97.941406 L 249.554688 97.722656 L 248.816406 97.449219 L 248.078125 97.203125 L 247.339844 96.925781 L 246.660156 96.617188 L 245.984375 96.277344 L 251.617188 91.199219 L 252.449219 91.691406 L 253.339844 92.183594 L 253.804688 92.402344 L 254.296875 92.617188 L 254.789063 92.800781 L 255.308594 92.984375 L 256.359375 93.292969 L 256.914063 93.414063 L 257.496094 93.507813 L 258.085938 93.601563 L 258.699219 93.660156 L 259.3125 93.691406 L 259.960938 93.722656 L 260.421875 93.691406 L 260.851563 93.660156 L 261.3125 93.628906 L 261.773438 93.570313 L 262.210938 93.476563 L 262.671875 93.382813 L 263.066406 93.261719 L 263.46875 93.140625 L 263.839844 92.953125 L 264.210938 92.800781 L 264.515625 92.585938 L 264.796875 92.367188 L 265.035156 92.121094 L 265.253906 91.84375 L 265.40625 91.570313 L 265.503906 91.261719 L 265.527344 91.105469 L 265.558594 90.953125 L 265.527344 90.796875 L 265.503906 90.644531 L 265.4375 90.523438 L 265.347656 90.367188 L 265.253906 90.246094 L 265.128906 90.121094 L 264.851563 89.90625 L 264.515625 89.722656 L 264.144531 89.535156 L 263.714844 89.351563 L 263.28125 89.195313 L 262.789063 89.074219 L 262.328125 88.953125 L 261.839844 88.828125 L 260.882813 88.644531 L 260.019531 88.488281 L 258.914063 88.273438 L 257.863281 88.058594 L 256.878906 87.84375 L 255.925781 87.597656 L 255.066406 87.351563 L 254.265625 87.074219 L 253.894531 86.917969 L 253.554688 86.734375 L 253.21875 86.582031 L 252.910156 86.394531 L 252.632813 86.210938 L 252.355469 85.996094 L 252.109375 85.78125 L 251.894531 85.566406 L 251.714844 85.320313 L 251.527344 85.070313 L 251.371094 84.792969 L 251.253906 84.519531 L 251.15625 84.210938 L 251.09375 83.902344 L 251.03125 83.5625 L 251.03125 82.855469 L 251.0625 82.457031 L 251.15625 82.054688 L 251.253906 81.625 L 251.371094 81.164063 L 251.527344 80.730469 L 251.714844 80.269531 L 251.960938 79.871094 L 252.203125 79.4375 L 252.757813 78.636719 L 253.09375 78.269531 L 253.433594 77.898438 L 253.804688 77.53125 L 254.203125 77.191406 L 254.632813 76.882813 L 255.066406 76.546875 L 255.554688 76.269531 L 256.019531 75.960938 L 256.546875 75.683594 L 257.589844 75.191406 L 258.175781 74.945313 L 258.726563 74.726563 L 259.34375 74.542969 L 259.925781 74.359375 L 260.574219 74.207031 L 261.21875 74.050781 L 261.867188 73.898438 L 262.511719 73.804688 L 263.191406 73.683594 L 264.605469 73.558594 L 265.316406 73.5 L 266.023438 73.46875 L 267.503906 73.46875 L 268.269531 73.5 L 269.039063 73.527344 L 269.808594 73.589844 L 271.347656 73.777344 L 272.886719 73.988281 L 273.65625 74.144531 L 274.394531 74.296875 L 275.132813 74.453125 L 275.839844 74.636719 L 276.550781 74.820313 L 277.195313 75.039063 L 277.839844 75.253906 L 278.460938 75.46875 Z M 273.195313 80.363281 "/>
<path style=" stroke:none;fill-rule:evenodd;fill:rgb(10.594177%,9.812927%,9.423828%);fill-opacity:1;" d="M 278.824219 74.082031 L 290.984375 74.082031 L 296.589844 80.699219 L 305.574219 74.082031 L 317.699219 74.082031 L 300.128906 86.734375 L 297.171875 98.433594 L 287.046875 98.433594 L 290.003906 86.734375 Z M 278.824219 74.082031 "/>
<path style=" stroke:none;fill-rule:evenodd;fill:rgb(10.594177%,9.812927%,9.423828%);fill-opacity:1;" d="M 338.816406 80.363281 L 338.171875 80.023438 L 337.492188 79.714844 L 336.753906 79.4375 L 335.984375 79.191406 L 335.152344 79.007813 L 334.296875 78.886719 L 333.398438 78.792969 L 332.472656 78.761719 L 331.765625 78.792969 L 330.996094 78.886719 L 330.597656 78.945313 L 330.199219 79.039063 L 329.828125 79.132813 L 329.488281 79.253906 L 329.121094 79.40625 L 328.8125 79.5625 L 328.503906 79.714844 L 328.257813 79.902344 L 328.011719 80.085938 L 327.828125 80.300781 L 327.703125 80.546875 L 327.613281 80.792969 L 327.585938 80.917969 L 327.585938 81.164063 L 327.613281 81.285156 L 327.703125 81.503906 L 327.828125 81.6875 L 328.011719 81.871094 L 328.257813 82.054688 L 328.503906 82.210938 L 328.8125 82.335938 L 329.464844 82.578125 L 330.171875 82.792969 L 330.878906 82.980469 L 331.550781 83.101563 L 334.015625 83.59375 L 334.96875 83.777344 L 335.859375 83.996094 L 336.753906 84.242188 L 337.554688 84.488281 L 338.324219 84.792969 L 339.0625 85.105469 L 339.710938 85.441406 L 340.296875 85.808594 L 340.539063 85.996094 L 340.789063 86.210938 L 341.03125 86.425781 L 341.21875 86.671875 L 341.402344 86.890625 L 341.589844 87.136719 L 341.714844 87.414063 L 341.835938 87.6875 L 342.015625 88.242188 L 342.078125 88.859375 L 342.078125 89.164063 L 342.046875 89.507813 L 342.015625 89.875 L 341.925781 90.246094 L 341.804688 90.675781 L 341.492188 91.597656 L 341.277344 92.03125 L 341.0625 92.492188 L 340.507813 93.355469 L 339.835938 94.214844 L 339.429688 94.617188 L 339.003906 95.015625 L 338.539063 95.386719 L 338.011719 95.753906 L 337.464844 96.125 L 336.878906 96.460938 L 335.585938 97.078125 L 334.90625 97.355469 L 334.230469 97.601563 L 332.816406 98.03125 L 332.078125 98.21875 L 331.339844 98.371094 L 330.597656 98.523438 L 329.859375 98.648438 L 329.089844 98.769531 L 328.351563 98.863281 L 327.585938 98.925781 L 326.84375 98.984375 L 326.074219 99.050781 L 325.335938 99.050781 L 324.597656 99.078125 L 323.671875 99.050781 L 322.753906 99.019531 L 321.855469 98.957031 L 320.992188 98.894531 L 320.101563 98.769531 L 319.238281 98.648438 L 318.410156 98.492188 L 317.578125 98.339844 L 316.746094 98.15625 L 315.976563 97.941406 L 315.175781 97.722656 L 314.4375 97.449219 L 313.699219 97.203125 L 312.964844 96.925781 L 312.285156 96.617188 L 311.605469 96.277344 L 317.238281 91.199219 L 318.070313 91.691406 L 318.964844 92.183594 L 319.425781 92.402344 L 319.921875 92.617188 L 320.410156 92.800781 L 320.933594 92.984375 L 321.980469 93.292969 L 322.535156 93.414063 L 323.121094 93.507813 L 323.703125 93.601563 L 324.320313 93.660156 L 324.933594 93.691406 L 325.585938 93.722656 L 326.046875 93.691406 L 326.472656 93.660156 L 326.933594 93.628906 L 327.398438 93.570313 L 327.828125 93.476563 L 328.289063 93.382813 L 328.6875 93.261719 L 329.089844 93.140625 L 329.464844 92.953125 L 329.828125 92.800781 L 330.136719 92.585938 L 330.414063 92.367188 L 330.660156 92.121094 L 330.878906 91.84375 L 331.027344 91.570313 L 331.152344 91.261719 L 331.152344 91.105469 L 331.183594 90.953125 L 331.152344 90.796875 L 331.121094 90.644531 L 331.058594 90.523438 L 330.96875 90.367188 L 330.878906 90.246094 L 330.753906 90.121094 L 330.472656 89.90625 L 330.136719 89.722656 L 329.765625 89.535156 L 329.339844 89.351563 L 328.90625 89.195313 L 328.410156 89.074219 L 327.949219 88.953125 L 327.464844 88.828125 L 326.503906 88.644531 L 325.640625 88.488281 L 324.535156 88.273438 L 323.488281 88.058594 L 322.503906 87.84375 L 321.546875 87.597656 L 320.6875 87.351563 L 319.886719 87.074219 L 319.515625 86.917969 L 319.179688 86.734375 L 318.839844 86.582031 L 318.53125 86.394531 L 318.253906 86.210938 L 317.976563 85.996094 L 317.734375 85.78125 L 317.515625 85.566406 L 317.335938 85.320313 L 317.148438 85.070313 L 316.996094 84.792969 L 316.871094 84.519531 L 316.777344 84.210938 L 316.714844 83.902344 L 316.652344 83.5625 L 316.652344 82.855469 L 316.683594 82.457031 L 316.777344 82.054688 L 316.871094 81.625 L 316.996094 81.164063 L 317.148438 80.730469 L 317.363281 80.269531 L 317.578125 79.871094 L 317.824219 79.4375 L 318.378906 78.636719 L 318.714844 78.269531 L 319.054688 77.898438 L 319.425781 77.53125 L 319.824219 77.191406 L 320.257813 76.882813 L 320.6875 76.546875 L 321.179688 76.269531 L 321.640625 75.960938 L 322.164063 75.683594 L 323.214844 75.191406 L 323.796875 74.945313 L 324.347656 74.726563 L 324.964844 74.542969 L 325.550781 74.359375 L 326.195313 74.207031 L 326.84375 74.050781 L 327.488281 73.898438 L 328.132813 73.804688 L 328.8125 73.683594 L 329.519531 73.621094 L 330.933594 73.5 L 331.644531 73.46875 L 333.121094 73.46875 L 333.890625 73.5 L 334.660156 73.527344 L 335.429688 73.589844 L 336.96875 73.777344 L 338.507813 73.988281 L 339.277344 74.144531 L 340.015625 74.296875 L 340.753906 74.453125 L 341.464844 74.636719 L 342.171875 74.820313 L 342.816406 75.039063 L 343.464844 75.253906 L 344.078125 75.46875 Z M 338.816406 80.363281 "/>
<path style=" stroke:none;fill-rule:evenodd;fill:rgb(10.594177%,9.812927%,9.423828%);fill-opacity:1;" d="M 360.144531 98.433594 L 349.988281 98.433594 L 354.789063 79.4375 L 346.421875 79.4375 L 347.773438 74.082031 L 374.671875 74.082031 L 373.320313 79.4375 L 364.949219 79.4375 Z M 360.144531 98.433594 "/>
<path style=" stroke:none;fill-rule:evenodd;fill:rgb(10.594177%,9.812927%,9.423828%);fill-opacity:1;" d="M 387.109375 79.4375 L 386.09375 83.503906 L 397.511719 83.503906 L 396.15625 88.859375 L 384.738281 88.859375 L 383.660156 93.078125 L 395.695313 93.078125 L 394.34375 98.433594 L 372.179688 98.433594 L 378.339844 74.082031 L 400.527344 74.082031 L 399.175781 79.4375 Z M 387.109375 79.4375 "/>
<path style=" stroke:none;fill-rule:evenodd;fill:rgb(10.594177%,9.812927%,9.423828%);fill-opacity:1;" d="M 411.089844 74.082031 L 421.058594 74.082031 L 425.675781 87.105469 L 437.339844 74.082031 L 447.40625 74.082031 L 447.128906 98.433594 L 437.003906 98.433594 L 437.714844 84.425781 L 437.621094 84.425781 L 424.722656 98.433594 L 420.6875 98.433594 L 415.304688 84.425781 L 415.179688 84.425781 L 408.378906 98.433594 L 398.3125 98.433594 Z M 411.089844 74.082031 "/>
<path style=" stroke:none;fill-rule:evenodd;fill:rgb(10.594177%,9.812927%,9.423828%);fill-opacity:1;" d="M 477.386719 80.363281 L 476.738281 80.023438 L 476.0625 79.714844 L 475.324219 79.4375 L 474.550781 79.191406 L 473.722656 79.007813 L 472.890625 78.886719 L 472.003906 78.792969 L 471.074219 78.761719 L 470.339844 78.792969 L 469.566406 78.886719 L 469.164063 78.945313 L 468.429688 79.132813 L 468.058594 79.253906 L 467.71875 79.40625 L 467.382813 79.5625 L 467.105469 79.714844 L 466.828125 79.902344 L 466.613281 80.085938 L 466.425781 80.300781 L 466.273438 80.546875 L 466.183594 80.792969 L 466.148438 80.917969 L 466.148438 81.164063 L 466.183594 81.285156 L 466.273438 81.503906 L 466.425781 81.6875 L 466.613281 81.871094 L 466.828125 82.054688 L 467.105469 82.210938 L 467.382813 82.335938 L 468.058594 82.578125 L 468.734375 82.792969 L 469.441406 82.980469 L 470.121094 83.101563 L 472.589844 83.59375 L 473.539063 83.777344 L 474.464844 83.996094 L 475.324219 84.242188 L 476.152344 84.488281 L 476.925781 84.792969 L 477.628906 85.105469 L 478.277344 85.441406 L 478.863281 85.808594 L 479.140625 85.996094 L 479.386719 86.210938 L 479.601563 86.425781 L 479.816406 86.671875 L 480.003906 86.890625 L 480.15625 87.136719 L 480.308594 87.414063 L 480.433594 87.6875 L 480.523438 87.964844 L 480.589844 88.242188 L 480.648438 88.550781 L 480.679688 88.859375 L 480.679688 89.164063 L 480.648438 89.507813 L 480.589844 89.875 L 480.523438 90.246094 L 480.402344 90.675781 L 480.253906 91.136719 L 480.0625 91.597656 L 479.847656 92.03125 L 479.628906 92.492188 L 479.386719 92.921875 L 478.769531 93.785156 L 478.402344 94.214844 L 478.003906 94.617188 L 477.570313 95.015625 L 477.109375 95.386719 L 476.617188 95.753906 L 476.0625 96.125 L 475.476563 96.460938 L 474.828125 96.769531 L 474.183594 97.078125 L 473.507813 97.355469 L 472.796875 97.601563 L 471.382813 98.03125 L 470.644531 98.21875 L 469.9375 98.371094 L 469.164063 98.523438 L 468.429688 98.648438 L 467.6875 98.769531 L 466.921875 98.863281 L 466.183594 98.925781 L 465.410156 98.984375 L 464.671875 99.050781 L 463.902344 99.050781 L 463.171875 99.078125 L 462.242188 99.050781 L 461.347656 99.019531 L 460.460938 98.957031 L 459.5625 98.894531 L 458.699219 98.769531 L 457.839844 98.648438 L 456.976563 98.492188 L 456.148438 98.339844 L 455.347656 98.15625 L 454.546875 97.941406 L 453.777344 97.722656 L 453.007813 97.449219 L 452.269531 97.203125 L 451.5625 96.925781 L 450.851563 96.617188 L 450.175781 96.277344 L 455.808594 91.199219 L 456.640625 91.691406 L 457.53125 92.183594 L 458.023438 92.402344 L 458.488281 92.617188 L 458.980469 92.800781 L 459.503906 92.984375 L 460.023438 93.140625 L 460.578125 93.292969 L 461.132813 93.414063 L 461.6875 93.507813 L 462.304688 93.601563 L 462.886719 93.660156 L 463.535156 93.691406 L 464.152344 93.722656 L 465.535156 93.628906 L 465.964844 93.570313 L 466.425781 93.476563 L 466.859375 93.382813 L 467.289063 93.261719 L 467.660156 93.140625 L 468.058594 92.953125 L 468.398438 92.800781 L 468.710938 92.585938 L 469.011719 92.367188 L 469.261719 92.121094 L 469.441406 91.84375 L 469.597656 91.570313 L 469.71875 91.261719 L 469.753906 91.105469 L 469.753906 90.953125 L 469.71875 90.796875 L 469.691406 90.644531 L 469.628906 90.523438 L 469.566406 90.367188 L 469.441406 90.246094 L 469.351563 90.121094 L 469.074219 89.90625 L 468.734375 89.722656 L 468.339844 89.535156 L 467.9375 89.351563 L 467.472656 89.195313 L 467.011719 89.074219 L 466.519531 88.953125 L 466.027344 88.828125 L 465.101563 88.644531 L 464.242188 88.488281 L 463.136719 88.273438 L 462.054688 88.058594 L 461.070313 87.84375 L 460.148438 87.597656 L 459.257813 87.351563 L 458.488281 87.074219 L 458.117188 86.917969 L 457.746094 86.734375 L 457.441406 86.582031 L 457.132813 86.394531 L 456.824219 86.210938 L 456.335938 85.78125 L 456.117188 85.566406 L 455.902344 85.320313 L 455.746094 85.070313 L 455.59375 84.792969 L 455.46875 84.519531 L 455.285156 83.902344 L 455.253906 83.5625 L 455.222656 83.226563 L 455.253906 82.855469 L 455.285156 82.457031 L 455.347656 82.054688 L 455.441406 81.625 L 455.5625 81.164063 L 455.746094 80.730469 L 455.933594 80.269531 L 456.148438 79.871094 L 456.394531 79.4375 L 456.671875 79.039063 L 456.976563 78.636719 L 457.285156 78.269531 L 458.023438 77.53125 L 458.425781 77.191406 L 458.855469 76.882813 L 459.285156 76.546875 L 459.746094 76.269531 L 460.242188 75.960938 L 460.734375 75.683594 L 461.257813 75.4375 L 461.8125 75.191406 L 462.363281 74.945313 L 462.949219 74.726563 L 463.535156 74.542969 L 464.152344 74.359375 L 464.765625 74.207031 L 465.410156 74.050781 L 466.058594 73.898438 L 466.734375 73.804688 L 467.410156 73.683594 L 468.089844 73.621094 L 468.796875 73.558594 L 469.507813 73.5 L 470.214844 73.46875 L 471.691406 73.46875 L 472.464844 73.5 L 473.230469 73.527344 L 474.003906 73.589844 L 475.570313 73.777344 L 477.109375 73.988281 L 477.847656 74.144531 L 478.617188 74.296875 L 479.324219 74.453125 L 480.0625 74.636719 L 480.738281 74.820313 L 481.421875 75.039063 L 482.03125 75.253906 L 482.648438 75.46875 Z M 477.386719 80.363281 "/>
<path style=" stroke:none;fill-rule:evenodd;fill:rgb(10.594177%,9.812927%,9.423828%);fill-opacity:1;" d="M 126.804688 31.753906 L 126.804688 66.507813 L 140.039063 66.507813 L 140.039063 48.46875 L 155.738281 66.507813 L 170.113281 66.507813 L 170.113281 31.878906 L 157.277344 31.878906 L 157.277344 48.871094 L 142.289063 31.753906 Z M 126.804688 31.753906 "/>
<path style=" stroke:none;fill-rule:evenodd;fill:rgb(10.594177%,9.812927%,9.423828%);fill-opacity:1;" d="M 230.195313 31.96875 L 230.195313 39.910156 L 242.9375 39.910156 L 242.9375 66.203125 L 256.480469 66.203125 L 256.480469 39.910156 L 269.53125 39.910156 L 269.53125 31.96875 Z M 230.195313 31.96875 "/>
<path style=" stroke:none;fill-rule:evenodd;fill:rgb(10.594177%,9.812927%,9.423828%);fill-opacity:1;" d="M 277.6875 66.507813 L 291.136719 66.507813 L 291.136719 31.753906 L 277.6875 31.753906 Z M 277.6875 66.507813 "/>
<path style=" stroke:none;fill-rule:evenodd;fill:rgb(10.594177%,9.812927%,9.423828%);fill-opacity:1;" d="M 307.203125 31.878906 L 307.203125 66.417969 L 319.855469 66.417969 L 319.855469 52.964844 L 341.15625 52.964844 L 341.15625 44.5 L 319.855469 44.5 L 319.855469 39.910156 L 345.128906 39.910156 L 345.128906 31.878906 Z M 307.203125 31.878906 "/>
<path style=" stroke:none;fill-rule:evenodd;fill:rgb(10.594177%,9.812927%,9.423828%);fill-opacity:1;" d="M 355.097656 66.292969 L 368.550781 66.292969 L 368.550781 31.570313 L 355.097656 31.570313 Z M 355.097656 66.292969 "/>
<path style=" stroke:none;fill-rule:evenodd;fill:rgb(10.594177%,9.812927%,9.423828%);fill-opacity:1;" d="M 423.152344 31.96875 L 385.355469 31.96875 L 385.355469 66.507813 L 424.96875 66.507813 L 424.96875 57.640625 L 398.589844 57.640625 L 398.589844 52.441406 L 419.671875 52.441406 L 419.671875 44.097656 L 398.683594 44.097656 L 398.683594 40.128906 L 423.152344 40.128906 Z M 423.152344 31.96875 "/>
<path style=" stroke:none;fill-rule:evenodd;fill:rgb(10.594177%,9.812927%,9.423828%);fill-opacity:1;" d="M 203.046875 40.3125 L 203.632813 40.3125 L 204.21875 40.34375 L 204.769531 40.40625 L 205.296875 40.496094 L 205.785156 40.621094 L 206.28125 40.742188 L 206.742188 40.929688 L 207.171875 41.113281 L 207.605469 41.296875 L 208.003906 41.542969 L 208.371094 41.789063 L 208.742188 42.066406 L 209.085938 42.34375 L 209.386719 42.652344 L 209.695313 42.988281 L 210.253906 43.667969 L 210.464844 44.039063 L 210.714844 44.40625 L 211.085938 45.207031 L 211.265625 45.609375 L 211.421875 46.007813 L 211.546875 46.4375 L 211.671875 46.871094 L 211.757813 47.300781 L 211.847656 47.761719 L 211.914063 48.195313 L 212.003906 49.085938 L 212.035156 49.976563 L 212.035156 50.5 L 212.003906 51.054688 L 211.972656 51.546875 L 211.914063 52.070313 L 211.847656 52.5625 L 211.757813 53.058594 L 211.671875 53.519531 L 211.421875 54.441406 L 211.265625 54.871094 L 211.113281 55.273438 L 210.925781 55.703125 L 210.714844 56.074219 L 210.496094 56.441406 L 210.253906 56.8125 L 210.003906 57.152344 L 209.726563 57.488281 L 209.421875 57.796875 L 209.113281 58.105469 L 208.773438 58.351563 L 208.433594 58.628906 L 208.035156 58.84375 L 207.664063 59.058594 L 207.230469 59.273438 L 206.800781 59.429688 L 206.339844 59.582031 L 205.878906 59.703125 L 205.386719 59.828125 L 204.863281 59.921875 L 204.308594 59.984375 L 203.753906 60.015625 L 202.523438 60.015625 L 201.296875 59.890625 L 200.738281 59.769531 L 200.214844 59.644531 L 199.722656 59.460938 L 199.230469 59.273438 L 198.800781 59.089844 L 198.367188 58.84375 L 197.96875 58.597656 L 197.601563 58.320313 L 196.921875 57.703125 L 196.367188 57.027344 L 196.089844 56.660156 L 195.847656 56.289063 L 195.628906 55.921875 L 195.445313 55.519531 L 195.261719 55.121094 L 195.105469 54.6875 L 194.953125 54.285156 L 194.828125 53.855469 L 194.734375 53.425781 L 194.550781 52.5625 L 194.429688 51.703125 L 194.367188 50.84375 L 194.339844 49.976563 L 194.367188 49.148438 L 194.429688 48.285156 L 194.550781 47.453125 L 194.769531 46.59375 L 194.859375 46.191406 L 195.011719 45.792969 L 195.171875 45.390625 L 195.320313 44.988281 L 195.507813 44.59375 L 195.722656 44.21875 L 195.9375 43.851563 L 196.183594 43.480469 L 196.429688 43.144531 L 196.710938 42.835938 L 197.015625 42.496094 L 197.351563 42.21875 L 197.691406 41.945313 L 198.058594 41.667969 L 198.429688 41.421875 L 198.863281 41.207031 L 199.296875 41.019531 L 199.753906 40.835938 L 200.214844 40.683594 L 200.738281 40.558594 L 201.261719 40.464844 L 201.847656 40.375 L 202.429688 40.34375 Z M 203.171875 31.785156 L 201.847656 31.816406 L 200.589844 31.878906 L 199.355469 31.96875 L 198.121094 32.121094 L 196.921875 32.308594 L 195.78125 32.523438 L 194.644531 32.769531 L 193.566406 33.078125 L 192.492188 33.417969 L 191.476563 33.789063 L 190.488281 34.1875 L 189.535156 34.617188 L 188.609375 35.109375 L 187.753906 35.601563 L 186.921875 36.15625 L 186.121094 36.710938 L 185.347656 37.324219 L 184.640625 37.972656 L 183.964844 38.648438 L 183.347656 39.328125 L 182.765625 40.066406 L 182.214844 40.835938 L 181.71875 41.605469 L 181.289063 42.4375 L 180.886719 43.269531 L 180.546875 44.128906 L 180.238281 45.023438 L 180.023438 45.945313 L 179.808594 46.898438 L 179.683594 47.882813 L 179.59375 48.871094 L 179.5625 49.886719 L 179.59375 50.996094 L 179.683594 52.042969 L 179.808594 53.085938 L 179.992188 54.101563 L 180.238281 55.058594 L 180.546875 56.011719 L 180.886719 56.933594 L 181.289063 57.796875 L 181.71875 58.660156 L 182.214844 59.492188 L 182.730469 60.257813 L 183.320313 61 L 183.933594 61.738281 L 184.609375 62.414063 L 185.320313 63.0625 L 186.058594 63.679688 L 186.855469 64.261719 L 187.691406 64.785156 L 188.585938 65.308594 L 189.472656 65.769531 L 190.429688 66.203125 L 191.414063 66.601563 L 192.464844 66.972656 L 193.507813 67.3125 L 194.613281 67.585938 L 195.722656 67.863281 L 196.890625 68.050781 L 198.089844 68.234375 L 199.324219 68.386719 L 200.554688 68.480469 L 201.847656 68.542969 L 204.402344 68.542969 L 205.632813 68.480469 L 206.839844 68.386719 L 208.003906 68.234375 L 209.171875 68.078125 L 210.28125 67.863281 L 211.390625 67.621094 L 212.464844 67.3125 L 213.511719 67 L 214.558594 66.632813 L 215.546875 66.230469 L 216.496094 65.800781 L 217.421875 65.339844 L 218.316406 64.847656 L 219.175781 64.292969 L 219.976563 63.710938 L 220.746094 63.125 L 221.484375 62.476563 L 222.191406 61.800781 L 222.839844 61.09375 L 223.453125 60.324219 L 224.007813 59.550781 L 224.53125 58.753906 L 224.992188 57.890625 L 225.394531 57.027344 L 225.761719 56.105469 L 226.070313 55.148438 L 226.347656 54.195313 L 226.53125 53.179688 L 226.683594 52.132813 L 226.777344 51.085938 L 226.808594 49.976563 L 226.777344 49.117188 L 226.71875 48.253906 L 226.59375 47.390625 L 226.441406 46.558594 L 226.253906 45.699219 L 226.011719 44.871094 L 225.703125 44.066406 L 225.363281 43.238281 L 224.992188 42.464844 L 224.5625 41.667969 L 224.070313 40.929688 L 223.578125 40.15625 L 222.992188 39.449219 L 222.378906 38.742188 L 221.730469 38.066406 L 221.023438 37.417969 L 220.253906 36.800781 L 219.453125 36.21875 L 218.589844 35.632813 L 217.695313 35.109375 L 216.773438 34.617188 L 215.757813 34.15625 L 214.714844 33.722656 L 213.632813 33.324219 L 212.496094 32.984375 L 211.296875 32.675781 L 210.066406 32.398438 L 208.804688 32.1875 L 207.449219 32.03125 L 206.0625 31.878906 L 204.648438 31.816406 Z M 203.171875 31.785156 "/>
<path style=" stroke:none;fill-rule:evenodd;fill:rgb(100%,100%,100%);fill-opacity:1;" d="M 60.835938 2.9375 C 29.023438 2.9375 3.082031 28.886719 3.082031 60.699219 C 3.082031 92.511719 29.023438 118.460938 60.835938 118.460938 C 92.636719 118.460938 118.585938 92.511719 118.585938 60.699219 C 118.585938 28.886719 92.636719 2.9375 60.835938 2.9375 Z M 60.835938 2.9375 "/>
<path style=" stroke:none;fill-rule:evenodd;fill:rgb(0%,56.054688%,20.776367%);fill-opacity:1;" d="M 70.605469 21.226563 L 70.664063 29.660156 L 70.695313 34.308594 L 70.695313 43.730469 L 70.664063 48.253906 L 70.632813 52.53125 L 70.605469 56.441406 L 70.542969 56.875 L 70.453125 57.398438 L 70.355469 57.640625 L 70.234375 57.859375 L 70.171875 57.953125 L 70.085938 58.042969 L 69.894531 58.167969 L 69.773438 58.195313 L 69.617188 58.226563 L 69.492188 58.226563 L 69.339844 58.195313 L 69.15625 58.136719 L 68.972656 58.074219 L 68.757813 57.953125 L 68.507813 57.828125 L 68.015625 57.460938 L 67.433594 56.964844 L 66.722656 56.320313 L 65.960938 55.488281 L 63.800781 53.058594 L 61.832031 50.777344 L 59.984375 48.6875 L 58.230469 46.683594 L 57.367188 45.730469 L 56.476563 44.777344 L 55.585938 43.851563 L 54.660156 42.960938 L 53.675781 42.066406 L 52.6875 41.171875 L 51.613281 40.28125 L 50.503906 39.386719 L 50.105469 39.140625 L 49.707031 38.898438 L 49.273438 38.710938 L 48.8125 38.589844 L 48.351563 38.464844 L 47.855469 38.402344 L 46.871094 38.402344 L 46.351563 38.464844 L 45.855469 38.558594 L 45.335938 38.648438 L 44.808594 38.804688 L 44.316406 38.988281 L 43.792969 39.203125 L 42.808594 39.695313 L 41.886719 40.3125 L 41.425781 40.652344 L 40.992188 40.988281 L 40.59375 41.390625 L 40.191406 41.757813 L 39.855469 42.1875 L 39.515625 42.621094 L 39.214844 43.050781 L 38.933594 43.515625 L 38.683594 43.976563 L 38.503906 44.46875 L 38.3125 44.929688 L 38.191406 45.421875 L 38.128906 45.945313 L 38.101563 46.4375 L 38.070313 54.71875 L 38.070313 62.9375 L 38.039063 70.851563 L 38.039063 78.082031 L 38.007813 84.363281 L 38.007813 89.320313 L 38.039063 92.675781 L 38.101563 94.0625 L 38.191406 94.585938 L 38.285156 95.078125 L 38.3125 95.292969 L 38.3125 95.664063 L 38.253906 95.785156 L 38.191406 95.910156 L 38.101563 95.972656 L 37.945313 96 L 37.761719 96 L 37.515625 95.972656 L 37.210938 95.847656 L 36.867188 95.691406 L 36.4375 95.507813 L 35.421875 94.769531 L 34.40625 94 L 33.457031 93.199219 L 32.464844 92.402344 L 31.542969 91.535156 L 30.652344 90.675781 L 29.757813 89.753906 L 28.929688 88.828125 L 28.097656 87.875 L 27.296875 86.917969 L 26.527344 85.902344 L 25.789063 84.890625 L 25.085938 83.84375 L 24.402344 82.765625 L 23.753906 81.6875 L 23.140625 80.578125 L 22.558594 79.4375 L 22.003906 78.300781 L 21.476563 77.128906 L 20.988281 75.929688 L 20.128906 73.527344 L 19.753906 72.296875 L 19.414063 71.035156 L 19.109375 69.773438 L 18.863281 68.480469 L 18.648438 67.1875 L 18.464844 65.894531 L 18.308594 64.570313 L 18.21875 63.214844 L 18.128906 61.890625 L 18.128906 60.535156 L 18.1875 58.351563 L 18.339844 56.195313 L 18.617188 54.042969 L 18.984375 51.949219 L 19.445313 49.914063 L 20.03125 47.882813 L 20.714844 45.914063 L 21.453125 43.976563 L 22.308594 42.097656 L 23.234375 40.28125 L 24.28125 38.496094 L 25.386719 36.769531 L 26.558594 35.109375 L 27.820313 33.480469 L 29.144531 31.9375 L 30.558594 30.460938 L 32.035156 29.078125 L 33.578125 27.722656 L 35.175781 26.457031 L 36.867188 25.289063 L 38.589844 24.179688 L 40.347656 23.132813 L 42.191406 22.210938 L 44.070313 21.351563 L 46.011719 20.609375 L 47.980469 19.933594 L 50.011719 19.347656 L 52.042969 18.886719 L 54.136719 18.515625 L 56.257813 18.238281 L 58.445313 18.085938 L 60.628906 18.023438 L 61.738281 18.023438 L 63.214844 18.085938 L 64.015625 18.148438 L 64.847656 18.207031 L 65.710938 18.300781 L 66.539063 18.453125 L 67.339844 18.609375 L 68.082031 18.824219 L 68.453125 18.949219 L 68.785156 19.101563 L 69.09375 19.253906 L 69.402344 19.410156 L 69.648438 19.59375 L 69.894531 19.78125 L 70.109375 19.964844 L 70.265625 20.179688 L 70.417969 20.425781 L 70.511719 20.671875 L 70.578125 20.949219 Z M 70.605469 21.226563 "/>
<path style=" stroke:none;fill-rule:evenodd;fill:rgb(0%,56.054688%,20.776367%);fill-opacity:1;" d="M 50.902344 100.21875 L 50.8125 94.371094 L 50.8125 84.085938 L 50.84375 79.5 L 50.902344 71.003906 L 50.902344 62.847656 L 51.027344 62.507813 L 51.152344 62.261719 L 51.304688 62.046875 L 51.488281 61.863281 L 51.640625 61.738281 L 51.832031 61.613281 L 52.011719 61.554688 L 52.195313 61.523438 L 52.378906 61.523438 L 52.566406 61.554688 L 52.753906 61.582031 L 52.9375 61.644531 L 53.117188 61.738281 L 53.273438 61.832031 L 53.585938 62.074219 L 54.136719 62.601563 L 54.691406 63.15625 L 55.242188 63.738281 L 55.800781 64.351563 L 56.9375 65.648438 L 58.082031 67.066406 L 60.382813 70.019531 L 62.726563 73.097656 L 63.894531 74.609375 L 65.0625 76.085938 L 66.234375 77.53125 L 67.433594 78.855469 L 68.015625 79.5 L 68.601563 80.117188 L 69.1875 80.699219 L 69.773438 81.253906 L 70.386719 81.75 L 70.972656 82.242188 L 71.554688 82.671875 L 72.144531 83.074219 L 72.578125 83.316406 L 73.003906 83.535156 L 73.433594 83.71875 L 73.898438 83.84375 L 74.332031 83.964844 L 74.789063 84.027344 L 75.253906 84.085938 L 76.144531 84.085938 L 76.578125 84.027344 L 77.007813 83.964844 L 77.464844 83.84375 L 77.867188 83.71875 L 78.296875 83.5625 L 78.703125 83.378906 L 79.097656 83.164063 L 79.839844 82.671875 L 80.210938 82.394531 L 80.542969 82.085938 L 80.851563 81.78125 L 81.160156 81.410156 L 81.4375 81.070313 L 81.683594 80.667969 L 81.929688 80.269531 L 82.113281 79.871094 L 82.300781 79.4375 L 82.457031 78.976563 L 82.578125 78.515625 L 82.667969 78.054688 L 82.730469 77.5625 L 82.761719 77.039063 L 82.703125 60.722656 L 82.703125 44.652344 L 82.730469 37.757813 L 82.730469 32.246094 L 82.761719 28.492188 L 82.761719 26.980469 L 82.792969 26.492188 L 82.851563 26.058594 L 82.882813 25.71875 L 82.976563 25.476563 L 83.039063 25.289063 L 83.128906 25.167969 L 83.253906 25.074219 L 83.347656 25.042969 L 83.503906 25.074219 L 83.628906 25.132813 L 83.777344 25.226563 L 83.964844 25.320313 L 84.363281 25.566406 L 84.792969 25.8125 L 85.808594 26.550781 L 86.828125 27.320313 L 87.808594 28.089844 L 88.761719 28.921875 L 89.6875 29.78125 L 90.609375 30.644531 L 91.472656 31.539063 L 92.339844 32.460938 L 93.164063 33.417969 L 93.964844 34.402344 L 94.734375 35.417969 L 95.472656 36.433594 L 96.179688 37.480469 L 96.859375 38.527344 L 97.503906 39.636719 L 98.121094 40.742188 L 98.710938 41.882813 L 99.257813 43.019531 L 100.242188 45.359375 L 100.675781 46.558594 L 101.105469 47.792969 L 101.476563 49.023438 L 101.8125 50.285156 L 102.121094 51.546875 L 102.613281 54.132813 L 102.796875 55.425781 L 103.046875 58.074219 L 103.105469 59.429688 L 103.136719 60.785156 L 103.074219 62.96875 L 102.890625 65.125 L 102.644531 67.25 L 102.277344 69.339844 L 101.785156 71.40625 L 101.199219 73.4375 L 100.550781 75.40625 L 99.78125 77.34375 L 98.921875 79.222656 L 97.996094 81.039063 L 96.980469 82.824219 L 95.871094 84.550781 L 94.671875 86.210938 L 93.410156 87.8125 L 92.089844 89.382813 L 90.671875 90.832031 L 89.195313 92.246094 L 87.652344 93.601563 L 86.054688 94.863281 L 84.394531 96.03125 L 82.667969 97.140625 L 80.882813 98.15625 L 79.035156 99.109375 L 77.160156 99.941406 L 75.222656 100.710938 L 73.253906 101.386719 L 71.253906 101.945313 L 69.1875 102.433594 L 67.09375 102.804688 L 64.96875 103.082031 L 62.816406 103.234375 L 60.628906 103.296875 L 59.492188 103.296875 L 58.082031 103.265625 L 57.277344 103.234375 L 56.476563 103.171875 L 55.644531 103.082031 L 54.84375 102.957031 L 54.078125 102.804688 L 53.339844 102.589844 L 52.964844 102.496094 L 52.65625 102.34375 L 52.351563 102.21875 L 52.078125 102.066406 L 51.796875 101.878906 L 51.585938 101.695313 L 51.367188 101.480469 L 51.214844 101.265625 L 51.058594 101.050781 L 50.964844 100.773438 L 50.902344 100.527344 Z M 50.902344 100.21875 "/>
<path style=" stroke:none;fill-rule:evenodd;fill:rgb(0%,56.054688%,20.776367%);fill-opacity:1;" d="M 60.835938 8.875 C 32.292969 8.875 9.015625 32.15625 9.015625 60.699219 C 9.015625 89.242188 32.292969 112.523438 60.835938 112.523438 C 89.371094 112.523438 112.648438 89.242188 112.648438 60.699219 C 112.648438 32.15625 89.371094 8.875 60.835938 8.875 Z M 60.835938 2.9375 C 29.023438 2.9375 3.082031 28.886719 3.082031 60.699219 C 3.082031 92.511719 29.023438 118.460938 60.835938 118.460938 C 92.636719 118.460938 118.585938 92.511719 118.585938 60.699219 C 118.585938 28.886719 92.636719 2.9375 60.835938 2.9375 Z M 60.835938 2.9375 "/>
<path style=" stroke:none;fill-rule:evenodd;fill:rgb(10.594177%,9.812927%,9.423828%);fill-opacity:1;" d="M 488.679688 33.15625 L 489.0625 33.15625 L 489.410156 33.125 L 489.761719 33.0625 L 490.113281 32.996094 L 490.433594 32.933594 L 490.78125 32.839844 L 491.101563 32.710938 L 491.421875 32.585938 L 491.738281 32.457031 L 492.023438 32.300781 L 492.308594 32.140625 L 492.597656 31.945313 L 492.882813 31.753906 L 493.140625 31.535156 L 493.648438 31.089844 L 493.871094 30.832031 L 494.316406 30.324219 L 494.507813 30.035156 L 494.699219 29.75 L 494.859375 29.464844 L 495.015625 29.175781 L 495.175781 28.859375 L 495.269531 28.542969 L 495.398438 28.191406 L 495.492188 27.871094 L 495.554688 27.519531 L 495.621094 27.171875 L 495.683594 26.824219 L 495.714844 26.472656 L 495.714844 25.738281 L 495.683594 25.390625 L 495.621094 25.039063 L 495.554688 24.6875 L 495.492188 24.367188 L 495.398438 24.019531 L 495.269531 23.699219 L 495.175781 23.378906 L 495.015625 23.0625 L 494.859375 22.777344 L 494.699219 22.492188 L 494.507813 22.203125 L 494.09375 21.660156 L 493.648438 21.152344 L 493.140625 20.707031 L 492.597656 20.292969 L 492.308594 20.101563 L 492.023438 19.945313 L 491.738281 19.785156 L 491.421875 19.65625 L 491.101563 19.53125 L 490.78125 19.402344 L 490.433594 19.304688 L 490.113281 19.242188 L 489.761719 19.179688 L 489.410156 19.113281 L 489.0625 19.113281 L 488.679688 19.082031 L 488.335938 19.113281 L 487.980469 19.113281 L 487.597656 19.179688 L 487.28125 19.242188 L 486.929688 19.304688 L 486.578125 19.402344 L 486.261719 19.53125 L 485.945313 19.65625 L 485.628906 19.785156 L 485.339844 19.945313 L 485.019531 20.101563 L 484.730469 20.292969 L 484.480469 20.484375 L 484.191406 20.707031 L 483.9375 20.929688 L 483.714844 21.152344 L 483.492188 21.410156 L 483.265625 21.660156 L 483.046875 21.917969 L 482.855469 22.203125 L 482.664063 22.492188 L 482.34375 23.0625 L 482.21875 23.378906 L 481.964844 24.019531 L 481.867188 24.367188 L 481.804688 24.6875 L 481.742188 25.039063 L 481.675781 25.738281 L 481.675781 26.472656 L 481.742188 27.171875 L 481.804688 27.519531 L 481.867188 27.871094 L 481.964844 28.191406 L 482.089844 28.542969 L 482.21875 28.859375 L 482.34375 29.175781 L 482.503906 29.464844 L 482.664063 29.75 L 482.855469 30.035156 L 483.046875 30.324219 L 483.265625 30.578125 L 483.492188 30.832031 L 483.714844 31.089844 L 483.9375 31.3125 L 484.191406 31.535156 L 484.480469 31.753906 L 484.730469 31.945313 L 485.019531 32.140625 L 485.339844 32.300781 L 485.628906 32.457031 L 485.945313 32.585938 L 486.261719 32.710938 L 486.578125 32.839844 L 486.929688 32.933594 L 487.28125 32.996094 L 487.597656 33.0625 L 487.980469 33.125 L 488.335938 33.15625 Z M 488.679688 31.796875 L 488.992188 31.796875 L 489.273438 31.769531 L 489.558594 31.71875 L 489.839844 31.667969 L 490.097656 31.617188 L 490.378906 31.539063 L 490.636719 31.4375 L 490.890625 31.332031 L 491.148438 31.230469 L 491.378906 31.101563 L 491.613281 30.976563 L 491.84375 30.824219 L 492.074219 30.667969 L 492.277344 30.488281 L 492.691406 30.128906 L 492.871094 29.921875 L 493.050781 29.71875 L 493.230469 29.511719 L 493.382813 29.28125 L 493.539063 29.050781 L 493.664063 28.816406 L 493.796875 28.585938 L 493.921875 28.328125 L 494.003906 28.074219 L 494.101563 27.789063 L 494.179688 27.535156 L 494.230469 27.25 L 494.335938 26.6875 L 494.359375 26.40625 L 494.359375 25.8125 L 494.335938 25.53125 L 494.28125 25.246094 L 494.230469 24.964844 L 494.179688 24.710938 L 494.101563 24.425781 L 494.003906 24.167969 L 493.921875 23.914063 L 493.796875 23.652344 L 493.664063 23.425781 L 493.539063 23.195313 L 493.382813 22.960938 L 493.050781 22.523438 L 492.691406 22.113281 L 492.277344 21.753906 L 491.84375 21.417969 L 491.613281 21.265625 L 491.378906 21.136719 L 491.148438 21.007813 L 490.890625 20.90625 L 490.636719 20.804688 L 490.378906 20.703125 L 490.097656 20.621094 L 489.839844 20.574219 L 489.558594 20.519531 L 489.273438 20.46875 L 488.992188 20.46875 L 488.679688 20.441406 L 488.398438 20.46875 L 488.121094 20.46875 L 487.808594 20.519531 L 487.554688 20.574219 L 487.273438 20.621094 L 486.988281 20.703125 L 486.472656 20.90625 L 486.21875 21.007813 L 485.988281 21.136719 L 485.730469 21.265625 L 485.503906 21.417969 L 485.296875 21.574219 L 485.0625 21.753906 L 484.855469 21.933594 L 484.675781 22.113281 L 484.496094 22.320313 L 484.316406 22.523438 L 484.136719 22.730469 L 483.984375 22.960938 L 483.828125 23.195313 L 483.703125 23.425781 L 483.574219 23.652344 L 483.472656 23.914063 L 483.367188 24.167969 L 483.265625 24.425781 L 483.1875 24.710938 L 483.136719 24.964844 L 483.089844 25.246094 L 483.03125 25.8125 L 483.03125 26.40625 L 483.089844 26.96875 L 483.136719 27.25 L 483.1875 27.535156 L 483.265625 27.789063 L 483.367188 28.074219 L 483.472656 28.328125 L 483.574219 28.585938 L 483.703125 28.816406 L 483.828125 29.050781 L 483.984375 29.28125 L 484.136719 29.511719 L 484.316406 29.71875 L 484.496094 29.921875 L 484.675781 30.128906 L 484.855469 30.308594 L 485.0625 30.488281 L 485.296875 30.667969 L 485.503906 30.824219 L 485.730469 30.976563 L 485.988281 31.101563 L 486.21875 31.230469 L 486.472656 31.332031 L 486.730469 31.4375 L 486.988281 31.539063 L 487.273438 31.617188 L 487.554688 31.667969 L 487.808594 31.71875 L 488.121094 31.769531 L 488.398438 31.796875 Z M 488.679688 31.796875 "/>
<path style=" stroke:none;fill-rule:evenodd;fill:rgb(10.594177%,9.812927%,9.423828%);fill-opacity:1;" d="M 489.890625 26.675781 C 491.144531 26.492188 491.863281 26.148438 491.878906 24.917969 L 491.859375 24.363281 C 491.867188 22.695313 490.535156 22.457031 489.058594 22.457031 L 485.519531 22.457031 L 485.519531 29.78125 L 486.953125 29.78125 L 486.953125 26.675781 L 488.46875 26.675781 L 490.203125 29.78125 L 491.644531 29.78125 Z M 486.976563 25.617188 L 486.976563 23.515625 L 489.007813 23.515625 C 489.761719 23.507813 490.527344 23.59375 490.527344 24.484375 L 490.527344 24.808594 C 490.539063 25.621094 489.65625 25.617188 489.074219 25.617188 Z M 486.976563 25.617188 "/>
<path style=" stroke:none;fill-rule:evenodd;fill:rgb(10.594177%,9.812927%,9.423828%);fill-opacity:1;" d="M 438.421875 31.753906 L 471.246094 31.753906 C 477.085938 31.71875 481.878906 35.480469 481.96875 41.082031 L 482.03125 42.660156 C 482.035156 47.472656 479.453125 50.9375 474.800781 52.042969 L 482.03125 66.507813 L 467.164063 66.507813 L 458.886719 52.65625 L 451.652344 52.65625 L 451.652344 66.507813 L 438.421875 66.507813 Z M 470.03125 39.261719 L 451.632813 39.261719 L 451.632813 44.855469 L 469.644531 44.855469 C 471.019531 44.855469 471.34375 43.464844 471.378906 42.226563 L 471.378906 41.707031 C 471.382813 40.847656 471.054688 39.261719 470.03125 39.261719 Z M 470.03125 39.261719 "/>
</g>
</svg>
