<?xml version="1.0" encoding="UTF-8"?>
<svg xmlns="http://www.w3.org/2000/svg" xmlns:xlink="http://www.w3.org/1999/xlink" width="921.2pt" height="425.2pt" viewBox="0 0 921.2 425.2" version="1.1">
<defs>
<clipPath id="clip1">
  <path d="M 496 0 L 921.199219 0 L 921.199219 425.199219 L 496 425.199219 Z M 496 0 "/>
</clipPath>
<clipPath id="clip2">
  <path d="M 0 0 L 426 0 L 426 425.199219 L 0 425.199219 Z M 0 0 "/>
</clipPath>
</defs>
<g id="surface1">
<g clip-path="url(#clip1)" clip-rule="nonzero">
<path style=" stroke:none;fill-rule:nonzero;fill:rgb(13.699341%,12.199402%,12.5%);fill-opacity:1;" d="M 921.195313 425.199219 L 496 425.199219 L 496 0.00390625 L 921.195313 0.00390625 L 921.195313 425.199219 "/>
</g>
<path style=" stroke:none;fill-rule:nonzero;fill:rgb(100%,100%,100%);fill-opacity:1;" d="M 779.683594 250.035156 L 797.191406 173.371094 L 771.652344 173.371094 L 754.144531 250.035156 "/>
<path style=" stroke:none;fill-rule:nonzero;fill:rgb(100%,100%,100%);fill-opacity:1;" d="M 751.820313 173.371094 L 726.28125 173.371094 L 684.839844 358.078125 L 710.382813 358.078125 L 751.820313 173.371094 "/>
<path style=" stroke:none;fill-rule:nonzero;fill:rgb(100%,100%,100%);fill-opacity:1;" d="M 689.640625 250.035156 L 707.144531 173.371094 L 681.605469 173.371094 L 664.097656 250.035156 "/>
<path style=" stroke:none;fill-rule:nonzero;fill:rgb(100%,100%,100%);fill-opacity:1;" d="M 686.988281 65.320313 L 661.449219 65.320313 L 620.007813 250.035156 L 645.550781 250.035156 L 686.988281 65.320313 "/>
<g clip-path="url(#clip2)" clip-rule="nonzero">
<path style=" stroke:none;fill-rule:nonzero;fill:rgb(100%,100%,100%);fill-opacity:1;" d="M 425.195313 425.199219 L 0 425.199219 L 0 0.00390625 L 425.195313 0.00390625 L 425.195313 425.199219 "/>
</g>
<path style=" stroke:none;fill-rule:nonzero;fill:rgb(13.699341%,12.199402%,12.5%);fill-opacity:1;" d="M 258.144531 250.035156 L 275.652344 173.371094 L 301.191406 173.371094 L 283.683594 250.035156 L 258.144531 250.035156 "/>
<path style=" stroke:none;fill-rule:nonzero;fill:rgb(13.699341%,12.199402%,12.5%);fill-opacity:1;" d="M 255.820313 173.371094 L 230.28125 173.371094 L 188.839844 358.078125 L 214.382813 358.078125 L 255.820313 173.371094 "/>
<path style=" stroke:none;fill-rule:nonzero;fill:rgb(13.699341%,12.199402%,12.5%);fill-opacity:1;" d="M 193.640625 250.035156 L 211.148438 173.371094 L 185.605469 173.371094 L 168.097656 250.035156 L 193.640625 250.035156 "/>
<path style=" stroke:none;fill-rule:nonzero;fill:rgb(13.699341%,12.199402%,12.5%);fill-opacity:1;" d="M 190.988281 65.320313 L 165.449219 65.320313 L 124.007813 250.035156 L 149.546875 250.035156 L 190.988281 65.320313 "/>
</g>
</svg>
