<svg id="Layer_1" data-name="Layer 1" xmlns="http://www.w3.org/2000/svg" viewBox="0 0 841.89 595.45"><defs><style>.cls-1{fill:#c71618;}.cls-2{fill:#1d3a3e;}</style></defs><path class="cls-1" d="M359.45,416.66l-.09,21.55,1.57.27a134,134,0,0,0,14.95,1.92,92.47,92.47,0,0,0,13.21.26,55.64,55.64,0,0,0,12.4-2.34,34.4,34.4,0,0,0,12.87-6.86,26,26,0,0,0,7.49-10.74,29.56,29.56,0,0,0-.15-21.62,24.33,24.33,0,0,0-6.72-9.31,28.08,28.08,0,0,0-9.85-5.74l-16.25-6a8.7,8.7,0,0,1-4.43-4.23,5.52,5.52,0,0,1,.18-4.93,6.42,6.42,0,0,1,1.08-1.46,9.12,9.12,0,0,1,1.66-1.31c.24-.15.49-.29.74-.42A16.93,16.93,0,0,1,393.9,364a34,34,0,0,1,10.36.1,88.87,88.87,0,0,1,12,2.15l.84.19V346.57l-1.55-.33a103.55,103.55,0,0,0-12.22-2.18,63,63,0,0,0-16.06-.07,34.8,34.8,0,0,0-18.5,7.44,24.56,24.56,0,0,0-7.9,10.89,30,30,0,0,0,0,20.25,22.9,22.9,0,0,0,5.68,8.57,32.59,32.59,0,0,0,7.35,5.32,50.17,50.17,0,0,0,11.18,4.39c1.29.39,2.56.79,3.83,1.22l1.92.71.56.22a14.39,14.39,0,0,1,5.08,3.14,9.07,9.07,0,0,1,2.28,3.41,7.39,7.39,0,0,1,0,3.62,7.64,7.64,0,0,1-3.71,4.46,18.83,18.83,0,0,1-6.2,1.94,45.34,45.34,0,0,1-9.6.48,112.19,112.19,0,0,1-12.53-1.67q-3.25-.67-6.46-1.51l-.8-.21"/><path class="cls-1" d="M271.13,437.42v-25l-.49.22a46.28,46.28,0,0,1-18,4.57,26.45,26.45,0,0,1-18.14-5.35,23.12,23.12,0,0,1-7.9-11.22,26.86,26.86,0,0,1-.53-15,23,23,0,0,1,8-12.83,24.16,24.16,0,0,1,12.64-5.45,41.66,41.66,0,0,1,23.87,4.48l.54.28V347l-1.14-.31a63.88,63.88,0,0,0-22.76-3,52.67,52.67,0,0,0-20.33,4.65,46.55,46.55,0,0,0-16.64,12.86,50.07,50.07,0,0,0-.91,60.91,47.76,47.76,0,0,0,26.46,17,62,62,0,0,0,33.48-1.17l1.84-.51"/><polyline class="cls-1" points="327.38 439.08 327.38 345.27 303.73 345.27 303.73 439.08 327.38 439.08"/><polyline class="cls-1" points="677.45 428.18 677.45 426.76 667.44 426.76 667.44 428.18 671.6 428.18 671.6 439.08 673.28 439.08 673.28 428.18 677.45 428.18"/><polyline class="cls-1" points="678.42 439.08 680.02 439.08 680.02 429.24 680.23 429.24 683.83 439.08 685.43 439.08 689.32 428.77 689.32 439.08 691 439.08 691 426.76 688.4 426.76 684.75 436.9 681.06 426.76 678.42 426.76 678.42 439.08"/><path class="cls-2" d="M151,269.88a11.73,11.73,0,0,0,23.39,0v-26a11.7,11.7,0,0,0-23.39,0v26"/><path class="cls-2" d="M215.75,269.88a11.73,11.73,0,0,0,23.4,0V211.6a11.71,11.71,0,0,0-23.4,0v58.28"/><path class="cls-2" d="M280.16,293.36a11.73,11.73,0,0,0,23.39,0V167.29a11.7,11.7,0,0,0-23.39,0V293.36"/><path class="cls-2" d="M344.9,269.88a11.73,11.73,0,0,0,23.39,0V211.6a11.7,11.7,0,0,0-23.39,0v58.28"/><path class="cls-2" d="M409.36,269.88a11.73,11.73,0,0,0,23.39,0v-26a11.7,11.7,0,0,0-23.39,0v26"/><path class="cls-2" d="M474.05,269.88a11.73,11.73,0,0,0,23.39,0V211.6a11.7,11.7,0,0,0-23.39,0v58.28"/><path class="cls-2" d="M538.48,293.36a11.73,11.73,0,0,0,23.39,0V167.29a11.7,11.7,0,0,0-23.39,0V293.36"/><path class="cls-2" d="M603.12,269.88a11.73,11.73,0,0,0,23.39,0V211.6a11.7,11.7,0,0,0-23.39,0v58.28"/><path class="cls-2" d="M667.61,269.88a11.73,11.73,0,0,0,23.39,0v-26a11.7,11.7,0,0,0-23.39,0v26"/><path class="cls-1" d="M518.27,437.42v-25l-.49.22a46.28,46.28,0,0,1-18,4.57,26.5,26.5,0,0,1-18.14-5.34,23.28,23.28,0,0,1-7.91-11.23,27,27,0,0,1-.53-15,23,23,0,0,1,8.05-12.83,24.13,24.13,0,0,1,12.64-5.45,41.69,41.69,0,0,1,23.87,4.48l.54.28V347l-1.14-.31a63.88,63.88,0,0,0-22.76-3A52.67,52.67,0,0,0,474,348.32a46.47,46.47,0,0,0-16.64,12.86,50.07,50.07,0,0,0-.91,60.91,47.76,47.76,0,0,0,26.46,17,62,62,0,0,0,33.48-1.17l1.84-.51"/><path class="cls-1" d="M543.19,392.21a49.36,49.36,0,0,0,60,47.43A48.14,48.14,0,0,0,619,351a49.67,49.67,0,0,0-75.8,41.21M577.53,373a24.68,24.68,0,1,1-9.12,16.53A24.65,24.65,0,0,1,577.53,373"/></svg>