<?xml version="1.0" encoding="utf-8"?>
<!-- Generator: Adobe Illustrator 19.2.1, SVG Export Plug-In . SVG Version: 6.00 Build 0)  -->
<svg version="1.1"
	 id="svg2985" inkscape:version="0.48.5 r10040" sodipodi:docname="Dell_logo_2016.svg" xmlns:cc="http://creativecommons.org/ns#" xmlns:dc="http://purl.org/dc/elements/1.1/" xmlns:inkscape="http://www.inkscape.org/namespaces/inkscape" xmlns:rdf="http://www.w3.org/1999/02/22-rdf-syntax-ns#" xmlns:sodipodi="http://sodipodi.sourceforge.net/DTD/sodipodi-0.dtd" xmlns:svg="http://www.w3.org/2000/svg"
	 xmlns="http://www.w3.org/2000/svg" xmlns:xlink="http://www.w3.org/1999/xlink" x="0px" y="0px" viewBox="0 0 1072 1072"
	 style="enable-background:new 0 0 1072 1072;" xml:space="preserve">
<style type="text/css">
	.st0{fill:#007DB8;}
</style>
<sodipodi:namedview  bordercolor="#666666" borderopacity="1" fit-margin-bottom="0" fit-margin-left="0" fit-margin-right="0" fit-margin-top="0" gridtolerance="10" guidetolerance="10" id="namedview2989" inkscape:current-layer="svg2985" inkscape:cx="36" inkscape:cy="36.0001" inkscape:pageopacity="0" inkscape:pageshadow="2" inkscape:window-height="706" inkscape:window-maximized="1" inkscape:window-width="1366" inkscape:window-x="-8" inkscape:window-y="-8" inkscape:zoom="6.375" objecttolerance="10" pagecolor="#ffffff" showgrid="false">
	</sodipodi:namedview>
<path id="path2987" inkscape:connector-curvature="0" class="st0" d="M498.5,402.9L365.3,505.3c-13.7-51.2-58.1-88.8-112.7-88.8
	h-95.6v235.6h95.6c54.6,0,102.4-37.6,112.7-88.8l133.2,102.4l133.2-102.4v88.8h150.2v-47.8h-99V416.5h-54.6v88.8L501.9,607.7
	l-27.3-23.9L536,536l64.8-51.2l-37.5-30.7l-126.3,99l-27.3-23.9L536,433.6L498.5,402.9L498.5,402.9z M208.3,464.3h41
	c8.5,0,16.9,1.9,24.5,5.5c7.7,3.5,14.7,8.6,20.7,15c6,6.4,10.9,14.1,14.3,22.7c3.4,8.6,5.3,18.3,5.3,28.5c0,9.4-1.7,18.6-4.9,27
	c-3.1,8.5-7.7,16.3-13.5,22.9c-5.8,6.6-12.7,12.1-20.5,15.8c-7.8,3.8-16.6,5.9-26,5.9h-41L208.3,464.3L208.3,464.3z M952.5,604.3
	v47.8H802.3V416.5h54.6v187.8L952.5,604.3L952.5,604.3z M536,0C242.4,0,0,242.4,0,536s239,536,536,536s536-239,536-536
	S829.6,0,536,0z M536,54.6c33.3,0,65.8,3.3,97.1,9.7c31.4,6.4,61.6,15.8,90.4,28c28.8,12.2,56.2,27.1,81.8,44.3s49.5,36.9,71.2,58.7
	s41.4,45.6,58.7,71.2c17.3,25.6,32.2,53,44.3,81.8c12.2,28.8,21.6,59.1,28,90.4c6.4,31.4,9.7,63.8,9.7,97.1s-3.3,65.8-9.7,97.1
	c-6.4,31.4-15.8,61.6-28,90.4c-12.2,28.8-27.1,56.2-44.3,81.8s-36.9,49.5-58.7,71.2s-45.6,41.4-71.2,58.7
	c-25.6,17.3-53,32.2-81.8,44.3c-28.8,12.2-59.1,21.6-90.4,28c-31.4,6.4-63.8,9.7-97.1,9.7s-65.8-3.3-97.1-9.7
	c-31.4-6.4-61.6-15.8-90.4-28c-28.8-12.2-56.2-27.1-81.8-44.4c-25.6-17.3-49.4-36.9-71.2-58.7S154,831,136.7,805.4
	c-17.3-25.6-32.2-53-44.3-81.8c-12.2-28.8-21.6-59.1-28-90.5c-6.4-31.4-9.7-63.8-9.7-97.1s3.3-65.8,9.7-97.1
	c6.4-31.4,15.8-61.6,28-90.4c12.2-28.8,27.1-56.2,44.3-81.8c17.3-25.6,36.9-49.4,58.7-71.2s45.6-41.4,71.2-58.7
	c25.6-17.3,53-32.2,81.8-44.3c28.8-12.2,59.1-21.6,90.5-28C470.2,58,502.7,54.7,536,54.6L536,54.6z"/>
</svg>
